<svg
  width="1200"
  height="900"
  viewBox="0 0 1200 900"
  fill="none"
  xmlns="http://www.w3.org/2000/svg"
>
  <defs>
    <linearGradient id="bg" x1="0" y1="0" x2="1" y2="1">
      <stop offset="0" stop-color="#0c3a8c" />
      <stop offset="1" stop-color="#022b79" />
    </linearGradient>
    <linearGradient id="accent" x1="0" y1="0" x2="1" y2="0">
      <stop offset="0" stop-color="#f4d047" />
      <stop offset="1" stop-color="#ffeaa6" />
    </linearGradient>
  </defs>
  <rect width="1200" height="900" fill="url(#bg)" />
  <circle cx="980" cy="140" r="120" fill="#f4d047" opacity="0.15" />
  <rect
    x="120"
    y="140"
    width="960"
    height="620"
    rx="32"
    fill="#ffffff"
    opacity="0.08"
    stroke="#ffecc2"
    stroke-opacity="0.35"
    stroke-width="4"
  />
  <rect x="170" y="190" width="420" height="70" rx="12" fill="url(#accent)" />
  <rect x="170" y="290" width="860" height="28" rx="10" fill="#ffecc2" opacity="0.6" />
  <rect x="170" y="335" width="860" height="22" rx="10" fill="#ffecc2" opacity="0.45" />
  <rect x="170" y="375" width="760" height="22" rx="10" fill="#ffecc2" opacity="0.35" />
  <rect x="170" y="440" width="360" height="230" rx="18" fill="#022b79" opacity="0.4" />
  <rect x="560" y="440" width="470" height="28" rx="10" fill="#ffecc2" opacity="0.55" />
  <rect x="560" y="485" width="470" height="22" rx="10" fill="#ffecc2" opacity="0.4" />
  <rect x="560" y="525" width="420" height="22" rx="10" fill="#ffecc2" opacity="0.3" />
  <rect x="560" y="585" width="470" height="22" rx="10" fill="#ffecc2" opacity="0.4" />
  <rect x="560" y="625" width="410" height="22" rx="10" fill="#ffecc2" opacity="0.3" />
</svg>
