<svg
  width="1200"
  height="900"
  viewBox="0 0 1200 900"
  fill="none"
  xmlns="http://www.w3.org/2000/svg"
>
  <defs>
    <linearGradient id="bg" x1="0" y1="0" x2="1" y2="1">
      <stop offset="0" stop-color="#0c2f6a" />
      <stop offset="1" stop-color="#0b4a6b" />
    </linearGradient>
  </defs>
  <rect width="1200" height="900" fill="url(#bg)" />
  <circle cx="260" cy="160" r="110" fill="#f4d047" opacity="0.16" />
  <rect
    x="180"
    y="180"
    width="840"
    height="540"
    rx="28"
    fill="#ffffff"
    opacity="0.08"
    stroke="#ffecc2"
    stroke-opacity="0.35"
    stroke-width="4"
  />
  <rect x="180" y="180" width="840" height="120" rx="28" fill="#f4d047" opacity="0.9" />
  <rect x="260" y="210" width="160" height="60" rx="14" fill="#022b79" opacity="0.7" />
  <rect x="470" y="210" width="160" height="60" rx="14" fill="#022b79" opacity="0.7" />
  <rect x="680" y="210" width="160" height="60" rx="14" fill="#022b79" opacity="0.7" />
  <rect x="240" y="350" width="200" height="140" rx="18" fill="#022b79" opacity="0.45" />
  <rect x="470" y="350" width="200" height="140" rx="18" fill="#022b79" opacity="0.35" />
  <rect x="700" y="350" width="200" height="140" rx="18" fill="#022b79" opacity="0.35" />
  <rect x="240" y="520" width="200" height="140" rx="18" fill="#022b79" opacity="0.35" />
  <rect x="470" y="520" width="200" height="140" rx="18" fill="#022b79" opacity="0.45" />
  <rect x="700" y="520" width="200" height="140" rx="18" fill="#022b79" opacity="0.35" />
</svg>
