<?xml version="1.0" encoding="UTF-8"?>
<svg id="Ebene_1" data-name="Ebene 1" xmlns="http://www.w3.org/2000/svg" viewBox="0 0 352.28 426.39">
  <g>
    <path d="M215.47,185.29c-1.64-5.77,7.98-6.14,7.38,0h-7.38Z" fill="#fff"/>
    <path d="M140.9,181.18c.54.5,1.48,2.85,1.1,3.23l-7.82.88c-1.22-4.11,3.94-6.73,6.72-4.11Z" fill="#fff"/>
    <path d="M94.19,188.77c-.23-5.33,8.27-6.61,7.82-.88l-7.82.88Z" fill="#fff"/>
    <path d="M274.62,275.81c.68,4.05,1.08,6.54-1.33,10.05-2.13,3.1-18.34,16.66-22.2,19.57-4.26,3.21-5.94,5.03-11.75,3.99-1.72-.31-6.65-1.91-12.15-3.89-8.44-3.04-18.23-6.95-19.93-8.4-3.52-3.01-9.12-21.3-10.09-26.46-.66-3.5-.82-5.73.61-9.05.68-1.58,6.33-9.98,11.25-16.98,3.38-4.79,6.41-8.92,7.28-9.75,1.9-1.83,3.84-2.63,6.35-3.29,10.69,1.84,23.09,1.41,33.59,3.4,4.16.79,6.49,2.71,8.16,6.64,2.63,6.19,9.12,27.63,10.21,34.17Z" fill="#fff"/>
    <path d="M332.24,239.45c1.59,2.7-5.89,20.24-7.51,23.93-27.84,63.24-84.78,104.79-148.46,127.33-4.05.1-4.08-1.93-5.39-2.46-7.45-3-15.14-5.3-22.51-8.62-60.37-27.22-110.18-74.38-129.62-139.08,28.63-18.08,65.05-24.3,98.48-27.39,35.15-3.25,72.62-3.49,107.79-.87,36.71,2.74,74.89,8.92,107.22,27.16ZM315.16,271.2c2.04-3.98,11.79-24.54,10.12-27.4-.39-.65-11.65-6.23-13.43-7.01-30.69-13.38-67.26-15.83-100.29-18.41,1.49,5.55,5.13,9.28,2.79,15.43-.35.95-3.38,5.42-6.92,10.44-4.85,6.87-10.67,14.75-11.93,15.96-1.58,1.54-3.97,3.05-6.17,3.39-5.04.78-21.7.71-26.92.08-6.22-.75-10.62-8.01-14.18-12.79-.58-.78-2.12-2.95-3.91-5.52-3.42-4.9-7.74-11.26-8.01-12.15-1.52-5.09.25-9.42,3.06-13.54l-2.16-1.35c-32.08,3.12-66.72,5.36-96.65,18.18-1.85.8-12.7,5.97-13.33,6.67-2.29,2.53,1.8,11.21,3.06,14.37,13.63,34.3,40.62,65.04,70.43,86.21,1.89.29,1.02-.28,1.31-1.25,2.06-6.74,2.18-21.15,4.99-26.38.87-1.62,4.56-4.16,6.28-5.03,1.92-.96,6.21-2.68,10.88-4.42,6.32-2.33,13.32-4.69,16.04-5.18,3.63-.67,6.47-.88,9.91.61,2.26.97,19.23,12.09,21.02,13.77,1.06.99,1.76,2.45,2.32,3.78,1.25,2.94,1.85,12.02,1.92,20.42.06,6.45-.2,12.5-.74,15.06-1.56,7.46-12.91,11.83-18.51,16.25-.7.55-1.6-.03-1.1,1.98,5.77.66,15.95,7.17,21.23,6.93,5.61-.25,14.4-6.42,20.5-6.93-4.23-5.19-18.61-10.7-19.78-17.17-.49-2.72-.74-9.35-.76-16.12-.02-7.19.2-14.55.63-17.56.2-1.4.61-2.7,1.29-3.93,1.63-2.91,13.92-10.82,17.48-12.97,5.75-3.48,7.86-5.49,15.1-4.12,3.78.71,10.17,2.86,16.1,5.02,4.05,1.48,7.89,2.97,10.53,4.01,1.33.53,3.11,1.05,4.21,1.88,5.19,3.9,6.49,24.61,7.38,31.36.95.13,1.76-.06,2.65-.38,3.36-1.2,16.98-13.02,20.4-16.14,16.65-15.21,32.85-35.94,43.16-56.05Z" fill="#fff"/>
    <path d="M153.65,261.14c1.42,3.28,1.74,5.23,1.18,8.84-.68,4.43-5.06,17.38-6.95,21.77-.76,1.75-1.37,3.67-2.82,5.02-1.62,1.52-12.59,5.94-21.18,9.1-4.5,1.66-8.35,2.97-9.86,3.34-6.49,1.61-8.46-.14-13.29-3.78-3.96-2.98-21.02-17.35-22.93-20.56-1.02-1.7-1.65-3.54-1.5-5.57.39-5.22,8.57-31.27,10.89-37.02,1.72-4.27,3.74-6.4,8.38-7.28,7.54-1.43,23-3.16,30.63-3.34,4.6-.11,7.06.75,10.08,4.2,1.16,1.33,4.17,5.43,7.37,9.98,4.4,6.27,9.17,13.38,10,15.3Z" fill="#fff"/>
    <path d="M33.2,194.99c2.92,4.69.87,23.26-7.13,20.69-4.8-1.54-3.16-24.87,7.13-20.69Z" fill="#fff"/>
    <path d="M292.33,200.17l-.3,3.46c-1.74,2.55-8.56-.89-7.44-4.4l7.74.94Z" fill="#fff"/>
    <path d="M268.64,187.11c5.25-1.49,7.29,8.93,4.43,11.9-5.5,5.71-9.88-10.34-4.43-11.9Z" fill="#fff"/>
    <path d="M341.77,194.18c1.42,2.47-5.22,39.56-7.23,39.9-4.9-1.75-9-4.95-13.72-7.15-60.82-28.36-183.22-27.46-248.38-13.35-19.42,4.21-38.91,10.48-55.63,21.34-1.61-7.48-3.69-14.91-4.95-22.47-.65-3.9-3.34-16.24-1.14-18.88,1.04-1.25,10.18-6.6,12.28-7.74,55.99-30.18,174.39-29.88,236.57-20.33,28.56,4.39,58.39,11.95,82.2,28.68ZM331.54,224.47v-16.98c0-2.9-7.11-8.52-10.4-7.43l-.86-10.03-2.65-.39v27.43c0,.92,2.46,1.66,3.47,1.31v-12.63c0-1.89,4.78-2.07,6.3,1.54,2.41,5.73-2.59,15,4.14,17.18ZM314.15,213.58c1.21-.87-.87-3.66-1.03-3.76-1.08-.64-2.91.49-4.29.25-5.77-.99-6.13-8.04-4.14-12.48,4.14-1.86,7.29,4.75,10.31,1.2-3.43-4.16-7.53-7.45-13.11-5.1-7.39,7.17,3.7,26.04,12.26,19.89ZM295.81,204.03c.19-4.15,1.27-9.07-.88-12.98-2.1-3.81-12.81-5.53-12.93-2.72-.17,3.88,4.51,2.27,5.51,2.45,2.92.52,5.73,2.5,4.9,5.83-.78.82-10.14-4.76-11.3,1.3-1.94,10.13,7.91,9.31,14.33,11.77,1.97-1.3.26-3.37.37-5.65ZM274.17,204.09c5.72-1.56,4.45-17.93-.01-20.11-2.17-1.06-5.45-.17-7.83-.43l-.38-8.76-3.97-.82.13,27.3c.87,2.62,3.55.68,5.19,1.05,2.37.53,3.86,2.6,6.87,1.77ZM257.64,200.96v-13.49c0-8.41-10.73-7.71-16.53-8.27.59,1.15.01,2.21.01,3.04v16.98h4.34v-13.49c1.18-2.62,7.83-1.1,7.83.87v14.36h4.35ZM236.77,198.35v-20.03h-5.22v20.03h5.22ZM236.77,173.97l-.07-3.42-5.14-.93v4.35s5.21,0,5.21,0ZM227.21,188.77c2.25-12.28-14.72-18.14-16.45-3.83-1.19,9.8,6.89,15.73,15.57,10.78-.99-7.09-10.65,1.97-11.3-6.95h12.18ZM201.78,193.77c1.82,4.34,8.77,4.04,5.83-.65-.37-.6-1.93-.58-2.16-1.47-.77-2.98.64-8.59-.04-11.98,6.49-1.42.58-3.26.18-4.5-.46-1.41.29-3.64-.24-4.55-.23-.39-3.19-1.55-3.83-.17-1.19,2.01.96,4.85-2.13,5.83l-.08,1.63c4,3.96.28,10.63,2.47,15.86ZM176.85,193.01c7.53,4.63,21.92,5.09,19.87-7.24-1-6.04-8.66-6.07-13.28-7.37-5.68-11.52,9.73-4.26,11.49-5.39l.96-3.35c-5.98-3.64-17.35-4.08-18.23,4.83-1.15,11.71,15.41,7,14.81,13.8-.52,5.73-10.72,2.19-14.26,1.28l-1.36,3.44ZM167.88,191.62c1.04-2.71,8.07-23.71,7.15-24.61l-2.67.51-8.62,28.21c2.97.79,3.24-1.78,4.14-4.11ZM163.72,177.02c-2.18-2.74-5.59-.75-8.24-.61-1.57.09-4-1.74-5.27.13l-.25,18.63,1.26,1.37,2.95-.8v-12.63c0-4.64,8.51-1.16,9.55-6.09ZM145.98,187.09c1.05-1.49-.44-7.3-1.6-8.54-1.39-1.51-6-2.25-8.06-2.03-8.03.86-11.71,22.64,4.33,20.04,4-.65,7.09-5.1,2.49-4.94-2.89.1-7.14,4.33-8.99-1.54-.41-1.6,1.31-1.72,2.41-1.93,3.21-.63,6.56.57,9.42-1.06ZM127.22,197.48c1.63-3.04-2.61-4.48-2.61-4.79v-23.07h-4.34v24.81c0,2.82,4.66,3.64,6.95,3.05ZM115.05,199.22v-20.9h-3.48v20.9h3.48ZM115.05,174.84l-.05-3.42-3.64-.93v4.36s3.69-.01,3.69-.01ZM105.98,190.58c3.29-10.82-10.72-14.76-14.84-5.29-4.95,11.39,3.6,21.26,13.94,12.22l-.93-2.64c-2.23-.57-9.74,5.72-9.97-2.61l11.8-1.68ZM82.07,203.2l6.02-21.39-3.92.86-3.03,13.07c-2.41.35-1.33-.28-1.74-1.3-.91-2.28-2.41-12.19-6.13-9.63l-4.74,13.54-3.12-11.23-4.26-.08,5.22,19.15c7.34.98,4.67-9.73,8.25-13.93,2.25,2.52,2.37,14.57,7.45,10.94ZM59.41,208.8l-.11-4.3-2.56-.53c.51-3.21-.52-7.42.04-10.44.42-2.26,4.36-2.12,2.21-5.44l-2.07-.73-.13-4.68c-6.29-.03-1.14,6.39-6.07,9.15v1.27c5.47.79.87,11.88,2.98,14.89l5.71.81ZM46.34,197.02c.4-2.13,4.76-2.57,1.98-5.63l-1.86-.06-.1-5.17c-5.28.14-2.72,3.16-3.64,6.36-.36,1.25-2.43,2.44-2.43,2.78,0,.27,2.21,1.58,2.58,3.5.68,3.55-.59,8.33.14,12.05,1.1,3.34,8.6,1.11,5.31-2.92l-2.01-.48c.51-3.21-.52-7.42.03-10.43ZM37.28,209.72c.6-2.84.95-14.42.22-16.86-.66-2.22-4-3.44-6.13-3.07-4.62.8-9.75,6.62-10.7,11.13-.68,3.2-1,14.68.43,17.08,4.16,6.97,14.88-2.1,16.18-8.28Z" fill="#fff"/>
    <path d="M342.84,75.14v111.89c-5.6-2.3-10.24-6.44-15.61-9.18-15.47-7.91-35.84-13.3-52.89-16.69-64.9-12.88-191.7-13.73-250.89,17.29-4.98,2.6-14.47,8.58-14.47,8.58v-111.89s17.61-16.54,28.11-22.36c61.1-33.88,180.95-34.31,246.43-13.14,21.88,7.07,44.1,17.9,59.32,35.5ZM292.87,83.39c1.46.09,3.27.8,2.88-1.13-3.55-18.01-15.04-32.43-33.57-36.06-13.72-2.68-32.83,2.88-37.78,17.42-3.09,9.11-2.5,45.85,1.3,54.82,4.81,11.31,23.33,24.18,34.99,25.04,8.65.63,16.62-1.75,23.44-6.98,13.89-10.63,12.23-28.73,11.38-44.44l-38.74-6.04v19.16l18.3,3.15c1.62,18.54-22.06,18.54-28.9,4.41-3.3-6.84-3.23-26.21-2.44-34.11,1.61-15.98,17.14-17.36,26.52-6.55,2.44,2.82,3.17,5.82,5.37,8.55,5.6.53,11.71,2.43,17.25,2.76ZM196.68,67.67l10.52-16.46c-17.44-12.63-56.63-18.09-65.95,6.62-7.21,19.08,3.43,35,22.44,39.12,8.47,1.84,26.92-.19,24.37,12.99-2.43,12.6-34.43,6.09-40.59-2.05h-1.38c-1.44.36-10.72,10.6-11.93,12.52-.47.74-1.52,1.17-.45,2.21,14.82,13.33,40.8,18.59,59.16,10.43,23.36-10.37,20.48-43.23-3.06-51.81-7.98-2.9-18.6-1.55-25.25-5.19-10.32-5.65-3.53-15.79,6.56-16.21,9.34-.39,17.3,4.49,25.56,7.83ZM128.09,60.77v-19.16l-66.08,8.71v95.78l20-2.61v-37.88l38.56-5.79,1.25-1.17c.03-.35-.69-.66-.69-.87v-13.94c0-.2,1.01-.66.51-1.31l-2.68-.94-36.95,4.43v-18.72l46.08-6.53Z" fill="#fff"/>
    <path d="M351.6,60.29c-.39,75.59,6.52,146.69-23.39,217.89-24.08,57.33-83.95,128.69-145.11,147.25-12.03,3.65-32.36-7.83-43.1-13.91C72.89,373.54,24.43,301.93,7.83,226.93-3.56,175.45,1.97,120.69.25,68.13c.95-3.7.41-8.28,2.28-11.64,1.55-2.81,13.38-13.41,16.47-15.73C44.99,21.24,118.2,5.15,118.2,5.15l21.57-3.66c19.93-1.88,39.38-1.52,58.51.34,0,0,23.04,2.35,30.99,3.32,41.83,5.12,96.84,19.3,122.33,55.14ZM342.84,187.03v-111.89c-15.22-17.6-37.44-28.43-59.32-35.5-65.48-21.17-185.33-20.74-246.43,13.14-10.5,5.82-28.11,22.36-28.11,22.36v111.89s9.49-5.98,14.47-8.58c59.19-31.02,185.99-30.17,250.89-17.29,17.05,3.39,37.42,8.78,52.89,16.69,5.37,2.74,10.01,6.88,15.61,9.18ZM334.54,234.08c2.01-.34,8.65-37.43,7.23-39.9-23.81-16.73-53.64-24.29-82.2-28.68-62.18-9.55-180.58-9.85-236.57,20.33-2.1,1.14-11.24,6.49-12.28,7.74-2.2,2.64.49,14.98,1.14,18.88,1.26,7.56,3.34,14.99,4.95,22.47,16.72-10.86,36.21-17.13,55.63-21.34,65.16-14.11,187.56-15.01,248.38,13.35,4.72,2.2,8.82,5.4,13.72,7.15ZM324.73,263.38c1.62-3.69,9.1-21.23,7.51-23.93-32.33-18.24-70.51-24.42-107.22-27.16-35.17-2.62-72.64-2.38-107.79.87-33.43,3.09-69.85,9.31-98.48,27.39,19.44,64.7,69.25,111.86,129.62,139.08,7.37,3.32,15.06,5.62,22.51,8.62,1.31.53,1.34,2.56,5.39,2.46,63.68-22.54,120.62-64.09,148.46-127.33Z"/>
    <path d="M331.54,207.49v16.98c-6.73-2.18-1.73-11.45-4.14-17.18-1.52-3.61-6.3-3.43-6.3-1.54v12.63c-1.01.35-3.47-.39-3.47-1.31v-27.43l2.65.39.86,10.03c3.29-1.09,10.4,4.53,10.4,7.43Z"/>
    <path d="M325.28,243.8c1.67,2.86-8.08,23.42-10.12,27.4-10.31,20.11-26.51,40.84-43.16,56.05-3.42,3.12-17.04,14.94-20.4,16.14-.89.32-1.7.51-2.65.38-.89-6.75-2.19-27.46-7.38-31.36-1.1-.83-2.88-1.35-4.21-1.88-2.64-1.04-6.48-2.53-10.53-4.01l.36-.99c5.5,1.98,10.43,3.58,12.15,3.89,5.81,1.04,7.49-.78,11.75-3.99,3.86-2.91,20.07-16.47,22.2-19.57,2.41-3.51,2.01-6,1.33-10.05-1.09-6.54-7.58-27.98-10.21-34.17-1.67-3.93-4-5.85-8.16-6.64-10.5-1.99-22.9-1.56-33.59-3.4-2.51.66-4.45,1.46-6.35,3.29-.87.83-3.9,4.96-7.28,9.75l-1.6-.39c3.54-5.02,6.57-9.49,6.92-10.44,2.34-6.15-1.3-9.88-2.79-15.43,33.03,2.58,69.6,5.03,100.29,18.41,1.78.78,13.04,6.36,13.43,7.01Z"/>
    <path d="M313.12,209.82c.16.1,2.24,2.89,1.03,3.76-8.56,6.15-19.65-12.72-12.26-19.89,5.58-2.35,9.68.94,13.11,5.1-3.02,3.55-6.17-3.06-10.31-1.2-1.99,4.44-1.63,11.49,4.14,12.48,1.38.24,3.21-.89,4.29-.25Z"/>
    <path d="M294.93,191.05c2.15,3.91,1.07,8.83.88,12.98-.11,2.28,1.6,4.35-.37,5.65-6.42-2.46-16.27-1.64-14.33-11.77,1.16-6.06,10.52-.48,11.3-1.3.83-3.33-1.98-5.31-4.9-5.83-1-.18-5.68,1.43-5.51-2.45.12-2.81,10.83-1.09,12.93,2.72ZM292.03,203.63l.3-3.46-7.74-.94c-1.12,3.51,5.7,6.95,7.44,4.4Z"/>
    <path d="M295.75,82.26c.39,1.93-1.42,1.22-2.88,1.13-5.54-.33-11.65-2.23-17.25-2.76-2.2-2.73-2.93-5.73-5.37-8.55-9.38-10.81-24.91-9.43-26.52,6.55-.79,7.9-.86,27.27,2.44,34.11,6.84,14.13,30.52,14.13,28.9-4.41l-18.3-3.15v-19.16l38.74,6.04c.85,15.71,2.51,33.81-11.38,44.44-6.82,5.23-14.79,7.61-23.44,6.98-11.66-.86-30.18-13.73-34.99-25.04-3.8-8.97-4.39-45.71-1.3-54.82,4.95-14.54,24.06-20.1,37.78-17.42,18.53,3.63,30.02,18.05,33.57,36.06Z"/>
    <path d="M274.16,183.98c4.46,2.18,5.73,18.55.01,20.11-3.01.83-4.5-1.24-6.87-1.77-1.64-.37-4.32,1.57-5.19-1.05l-.13-27.3,3.97.82.38,8.76c2.38.26,5.66-.63,7.83.43ZM273.07,199.01c2.86-2.97.82-13.39-4.43-11.9-5.45,1.56-1.07,17.61,4.43,11.9Z"/>
    <path d="M257.64,187.47v13.49h-4.35v-14.36c0-1.97-6.65-3.49-7.83-.87v13.49h-4.34v-16.98c0-.83.58-1.89-.01-3.04,5.8.56,16.53-.14,16.53,8.27Z"/>
    <rect x="231.55" y="178.32" width="5.22" height="20.03"/>
    <polygon points="236.7 170.55 236.77 173.97 231.55 173.97 231.56 169.62 236.7 170.55"/>
    <path d="M210.76,184.94c1.73-14.31,18.7-8.45,16.45,3.83h-12.18c.65,8.92,10.31-.14,11.3,6.95-8.68,4.95-16.76-.98-15.57-10.78ZM222.85,185.29c.6-6.14-9.02-5.77-7.38,0h7.38Z"/>
    <path d="M227.19,305.53l-.36.99c-5.93-2.16-12.32-4.31-16.1-5.02-7.24-1.37-9.35.64-15.1,4.12-3.56,2.15-15.85,10.06-17.48,12.97-.68,1.23-1.09,2.53-1.29,3.93-.43,3.01-.65,10.37-.63,17.56h-.84c-.07-8.4-.67-17.48-1.92-20.42-.56-1.33-1.26-2.79-2.32-3.78-1.79-1.68-18.76-12.8-21.02-13.77-3.44-1.49-6.28-1.28-9.91-.61-2.72.49-9.72,2.85-16.04,5.18l-.3-.81c8.59-3.16,19.56-7.58,21.18-9.1,1.45-1.35,2.06-3.27,2.82-5.02,1.89-4.39,6.27-17.34,6.95-21.77.56-3.61.24-5.56-1.18-8.84-.83-1.92-5.6-9.03-10-15.3l.67-.47c1.79,2.57,3.33,4.74,3.91,5.52,3.56,4.78,7.96,12.04,14.18,12.79,5.22.63,21.88.7,26.92-.08,2.2-.34,4.59-1.85,6.17-3.39,1.26-1.21,7.08-9.09,11.93-15.96l1.6.39c-4.92,7-10.57,15.4-11.25,16.98-1.43,3.32-1.27,5.55-.61,9.05.97,5.16,6.57,23.45,10.09,26.46,1.7,1.45,11.49,5.36,19.93,8.4Z"/>
    <path d="M207.61,193.12c2.94,4.69-4.01,4.99-5.83.65-2.19-5.23,1.53-11.9-2.47-15.86l.08-1.63c3.09-.98.94-3.82,2.13-5.83.64-1.38,3.6-.22,3.83.17.53.91-.22,3.14.24,4.55.4,1.24,6.31,3.08-.18,4.5.68,3.39-.73,9,.04,11.98.23.89,1.79.87,2.16,1.47Z"/>
    <path d="M207.2,51.21l-10.52,16.46c-8.26-3.34-16.22-8.22-25.56-7.83-10.09.42-16.88,10.56-6.56,16.21,6.65,3.64,17.27,2.29,25.25,5.19,23.54,8.58,26.42,41.44,3.06,51.81-18.36,8.16-44.34,2.9-59.16-10.43-1.07-1.04-.02-1.47.45-2.21,1.21-1.92,10.49-12.16,11.93-12.53h1.38c6.16,8.15,38.16,14.66,40.59,2.06,2.55-13.18-15.9-11.15-24.37-12.99-19.01-4.12-29.65-20.04-22.44-39.12,9.32-24.71,48.51-19.25,65.95-6.62Z"/>
    <path d="M196.72,185.77c2.05,12.33-12.34,11.87-19.87,7.24l1.36-3.44c3.54.91,13.74,4.45,14.26-1.28.6-6.8-15.96-2.09-14.81-13.8.88-8.91,12.25-8.47,18.23-4.83l-.96,3.35c-1.76,1.13-17.17-6.13-11.49,5.39,4.62,1.3,12.28,1.33,13.28,7.37Z"/>
    <path d="M196.77,373.37c-6.1.51-14.89,6.68-20.5,6.93-5.28.24-15.46-6.27-21.23-6.93-.5-2.01.4-1.43,1.1-1.98,5.6-4.42,16.95-8.79,18.51-16.25.54-2.56.8-8.61.74-15.06h.84c.02,6.77.27,13.4.76,16.12,1.17,6.47,15.55,11.98,19.78,17.17Z"/>
    <path d="M175.03,167.01c.92.9-6.11,21.9-7.15,24.61-.9,2.33-1.17,4.9-4.14,4.11l8.62-28.21,2.67-.51Z"/>
    <path d="M155.48,176.41c2.65-.14,6.06-2.13,8.24.61-1.04,4.93-9.55,1.45-9.55,6.09v12.63l-2.95.8-1.26-1.37.25-18.63c1.27-1.87,3.7-.04,5.27-.13Z"/>
    <path d="M144.38,178.55c1.16,1.24,2.65,7.05,1.6,8.54-2.86,1.63-6.21.43-9.42,1.06-1.1.21-2.82.33-2.41,1.93,1.85,5.87,6.1,1.64,8.99,1.54,4.6-.16,1.51,4.29-2.49,4.94-16.04,2.6-12.36-19.18-4.33-20.04,2.06-.22,6.67.52,8.06,2.03ZM142,184.41c.38-.38-.56-2.73-1.1-3.23-2.78-2.62-7.94,0-6.72,4.11l7.82-.88Z"/>
    <path d="M144.32,245.37l-.67.47c-3.2-4.55-6.21-8.65-7.37-9.98-3.02-3.45-5.48-4.31-10.08-4.2-7.63.18-23.09,1.91-30.63,3.34-4.64.88-6.66,3.01-8.38,7.28-2.32,5.75-10.5,31.8-10.89,37.02-.15,2.03.48,3.87,1.5,5.57,1.91,3.21,18.97,17.58,22.93,20.56,4.83,3.64,6.8,5.39,13.29,3.78,1.51-.37,5.36-1.68,9.86-3.34l.3.81c-4.67,1.74-8.96,3.46-10.88,4.42-1.72.87-5.41,3.41-6.28,5.03-2.81,5.23-2.93,19.64-4.99,26.38-.29.97.58,1.54-1.31,1.25-29.81-21.17-56.8-51.91-70.43-86.21-1.26-3.16-5.35-11.84-3.06-14.37.63-.7,11.48-5.87,13.33-6.67,29.93-12.82,64.57-15.06,96.65-18.18l2.16,1.35c-2.81,4.12-4.58,8.45-3.06,13.54.27.89,4.59,7.25,8.01,12.15Z"/>
    <path d="M128.09,41.61v19.16l-46.08,6.53v18.72l36.95-4.43,2.68.94c.5.65-.51,1.11-.51,1.31v13.94c0,.21.72.52.69.87l-1.25,1.17-38.56,5.79v37.88l-20,2.61V50.32l66.08-8.71Z"/>
    <path d="M124.61,192.69c0,.31,4.24,1.75,2.61,4.79-2.29.59-6.95-.23-6.95-3.05v-24.81h4.34v23.07Z"/>
    <rect x="111.57" y="178.32" width="3.48" height="20.9"/>
    <polygon points="115 171.42 115.05 174.84 111.35 174.85 111.36 170.49 115 171.42"/>
    <path d="M91.14,185.29c4.12-9.47,18.13-5.53,14.84,5.29l-11.8,1.68c.23,8.33,7.74,2.04,9.97,2.61l.93,2.64c-10.34,9.04-18.89-.83-13.94-12.22ZM102.01,187.89c.45-5.73-8.05-4.45-7.82.88l7.82-.88Z"/>
    <path d="M88.09,181.81l-6.02,21.39c-5.08,3.63-5.2-8.42-7.45-10.94-3.58,4.2-.91,14.91-8.25,13.93l-5.22-19.15,4.26.08,3.12,11.23,4.74-13.54c3.72-2.56,5.22,7.35,6.13,9.63.41,1.02-.67,1.65,1.74,1.3l3.03-13.07,3.92-.86Z"/>
    <path d="M59.3,204.5l.11,4.3-5.71-.81c-2.11-3.01,2.49-14.1-2.97-14.89v-1.27c4.92-2.76-.23-9.18,6.06-9.15l.13,4.68,2.07.73c2.15,3.32-1.79,3.18-2.21,5.44-.56,3.02.47,7.23-.04,10.44l2.56.53Z"/>
    <path d="M48.32,191.39c2.78,3.06-1.58,3.5-1.98,5.63-.55,3.01.48,7.22-.03,10.43l2.01.48c3.29,4.03-4.21,6.26-5.31,2.92-.73-3.72.54-8.5-.14-12.05-.37-1.92-2.58-3.23-2.58-3.5,0-.34,2.07-1.53,2.43-2.78.92-3.2-1.64-6.22,3.64-6.36l.1,5.17,1.86.06Z"/>
    <path d="M37.5,192.86c.73,2.44.38,14.02-.22,16.86-1.3,6.18-12.02,15.25-16.18,8.28-1.43-2.4-1.11-13.88-.43-17.08.95-4.51,6.08-10.33,10.7-11.13,2.13-.37,5.47.85,6.13,3.07ZM26.07,215.68c8,2.57,10.05-16,7.13-20.69-10.29-4.18-11.93,19.15-7.13,20.69Z"/>
  </g>
  <g>
    <path d="M139.77,1.49c19.93-1.88,39.38-1.52,58.51.34,0,0,23.04,2.35,30.99,3.32,41.83,5.12,96.84,19.3,122.33,55.14-.39,75.59,6.52,146.69-23.39,217.89-24.08,57.33-83.95,128.69-145.11,147.25-12.03,3.65-32.36-7.83-43.1-13.91C72.89,373.54,24.43,301.93,7.83,226.93-3.56,175.45,1.97,120.69.25,68.13c.95-3.7.41-8.28,2.28-11.64,1.55-2.81,13.38-13.41,16.47-15.73C44.99,21.24,118.2,5.15,118.2,5.15" fill="none" stroke="#000" stroke-miterlimit="10" stroke-width=".25"/>
    <path d="M8.98,75.14v111.89s9.49-5.98,14.47-8.58c59.19-31.02,185.99-30.17,250.89-17.29,17.05,3.39,37.42,8.78,52.89,16.69,5.37,2.74,10.01,6.88,15.61,9.18v-111.89c-15.22-17.6-37.44-28.43-59.32-35.5-65.48-21.17-185.33-20.74-246.43,13.14-10.5,5.82-28.11,22.36-28.11,22.36Z" fill="none" stroke="#000" stroke-miterlimit="10" stroke-width=".25"/>
    <path d="M341.77,194.18c-23.81-16.73-53.64-24.29-82.2-28.68-62.18-9.55-180.58-9.85-236.57,20.33-2.1,1.14-11.24,6.49-12.28,7.74-2.2,2.64.49,14.98,1.14,18.88,1.26,7.56,3.34,14.99,4.95,22.47,16.72-10.86,36.21-17.13,55.63-21.34,65.16-14.11,187.56-15.01,248.38,13.35,4.72,2.2,8.82,5.4,13.72,7.15,2.01-.34,8.65-37.43,7.23-39.9Z" fill="none" stroke="#000" stroke-miterlimit="10" stroke-width=".25"/>
    <path d="M332.24,239.45c-32.33-18.24-70.51-24.42-107.22-27.16-35.17-2.62-72.64-2.38-107.79.87-33.43,3.09-69.85,9.31-98.48,27.39,19.44,64.7,69.25,111.86,129.62,139.08,7.37,3.32,15.06,5.62,22.51,8.62,1.31.53,1.34,2.56,5.39,2.46,63.68-22.54,120.62-64.09,148.46-127.33,1.62-3.69,9.1-21.23,7.51-23.93Z" fill="none" stroke="#000" stroke-miterlimit="10" stroke-width=".25"/>
    <path d="M256.77,86.02l38.74,6.04c.85,15.71,2.51,33.81-11.38,44.44-6.82,5.23-14.79,7.61-23.44,6.98-11.66-.86-30.18-13.73-34.99-25.04-3.8-8.97-4.39-45.71-1.3-54.82,4.95-14.54,24.06-20.1,37.78-17.42,18.53,3.63,30.02,18.05,33.57,36.06.39,1.93-1.42,1.22-2.88,1.13-5.54-.33-11.65-2.23-17.25-2.76-2.2-2.73-2.93-5.73-5.37-8.55-9.38-10.81-24.91-9.43-26.52,6.55-.79,7.9-.86,27.27,2.44,34.11,6.84,14.13,30.52,14.13,28.9-4.41l-18.3-3.15v-19.16Z" fill="none" stroke="#000" stroke-miterlimit="10" stroke-width=".25"/>
    <path d="M207.2,51.21l-10.52,16.46c-8.26-3.34-16.22-8.22-25.56-7.83-10.09.42-16.88,10.56-6.56,16.21,6.65,3.64,17.27,2.29,25.25,5.19,23.54,8.58,26.42,41.44,3.06,51.81-18.36,8.16-44.34,2.9-59.16-10.43-1.07-1.04-.02-1.47.45-2.21,1.21-1.92,10.49-12.16,11.93-12.53h1.38c6.16,8.15,38.16,14.66,40.59,2.06,2.55-13.18-15.9-11.15-24.37-12.99-19.01-4.12-29.65-20.04-22.44-39.12,9.32-24.71,48.51-19.25,65.95-6.62Z" fill="none" stroke="#000" stroke-miterlimit="10" stroke-width=".25"/>
    <path d="M128.09,41.61v19.16l-46.08,6.53v18.72l36.95-4.43,2.68.94c.5.65-.51,1.11-.51,1.31v13.94c0,.21.72.52.69.87l-1.25,1.17-38.56,5.79v37.88l-20,2.61V50.32l66.08-8.71Z" fill="none" stroke="#000" stroke-miterlimit="10" stroke-width=".25"/>
    <path d="M207.43,244.25c3.54-5.02,6.57-9.49,6.92-10.44,2.34-6.15-1.3-9.88-2.79-15.43,33.03,2.58,69.6,5.03,100.29,18.41,1.78.78,13.04,6.36,13.43,7.01,1.67,2.86-8.08,23.42-10.12,27.4-10.31,20.11-26.51,40.84-43.16,56.05-3.42,3.12-17.04,14.94-20.4,16.14-.89.32-1.7.51-2.65.38-.89-6.75-2.19-27.46-7.38-31.36-1.1-.83-2.88-1.35-4.21-1.88-2.64-1.04-6.48-2.53-10.53-4.01-5.93-2.16-12.32-4.31-16.1-5.02-7.24-1.37-9.35.64-15.1,4.12-3.56,2.15-15.85,10.06-17.48,12.97-.68,1.23-1.09,2.53-1.29,3.93-.43,3.01-.65,10.37-.63,17.56.02,6.77.27,13.4.76,16.12,1.17,6.47,15.55,11.98,19.78,17.17-6.1.51-14.89,6.68-20.5,6.93-5.28.24-15.46-6.27-21.23-6.93-.5-2.01.4-1.43,1.1-1.98,5.6-4.42,16.95-8.79,18.51-16.25.54-2.56.8-8.61.74-15.06-.07-8.4-.67-17.48-1.92-20.42-.56-1.33-1.26-2.79-2.32-3.78-1.79-1.68-18.76-12.8-21.02-13.77-3.44-1.49-6.28-1.28-9.91-.61-2.72.49-9.72,2.85-16.04,5.18-4.67,1.74-8.96,3.46-10.88,4.42-1.72.87-5.41,3.41-6.28,5.03-2.81,5.23-2.93,19.64-4.99,26.38-.29.97.58,1.54-1.31,1.25-29.81-21.17-56.8-51.91-70.43-86.21-1.26-3.16-5.35-11.84-3.06-14.37.63-.7,11.48-5.87,13.33-6.67,29.93-12.82,64.57-15.06,96.65-18.18l2.16,1.35c-2.81,4.12-4.58,8.45-3.06,13.54.27.89,4.59,7.25,8.01,12.15,1.79,2.57,3.33,4.74,3.91,5.52,3.56,4.78,7.96,12.04,14.18,12.79,5.22.63,21.88.7,26.92-.08,2.2-.34,4.59-1.85,6.17-3.39,1.26-1.21,7.08-9.09,11.93-15.96Z" fill="none" stroke="#000" stroke-miterlimit="10" stroke-width=".25"/>
    <path d="M143.65,245.84c-3.2-4.55-6.21-8.65-7.37-9.98-3.02-3.45-5.48-4.31-10.08-4.2-7.63.18-23.09,1.91-30.63,3.34-4.64.88-6.66,3.01-8.38,7.28-2.32,5.75-10.5,31.8-10.89,37.02-.15,2.03.48,3.87,1.5,5.57,1.91,3.21,18.97,17.58,22.93,20.56,4.83,3.64,6.8,5.39,13.29,3.78,1.51-.37,5.36-1.68,9.86-3.34,8.59-3.16,19.56-7.58,21.18-9.1,1.45-1.35,2.06-3.27,2.82-5.02,1.89-4.39,6.27-17.34,6.95-21.77.56-3.61.24-5.56-1.18-8.84-.83-1.92-5.6-9.03-10-15.3Z" fill="none" stroke="#000" stroke-miterlimit="10" stroke-width=".25"/>
    <path d="M227.19,305.53c5.5,1.98,10.43,3.58,12.15,3.89,5.81,1.04,7.49-.78,11.75-3.99,3.86-2.91,20.07-16.47,22.2-19.57,2.41-3.51,2.01-6,1.33-10.05-1.09-6.54-7.58-27.98-10.21-34.17-1.67-3.93-4-5.85-8.16-6.64-10.5-1.99-22.9-1.56-33.59-3.4-2.51.66-4.45,1.46-6.35,3.29-.87.83-3.9,4.96-7.28,9.75-4.92,7-10.57,15.4-11.25,16.98-1.43,3.32-1.27,5.55-.61,9.05.97,5.16,6.57,23.45,10.09,26.46,1.7,1.45,11.49,5.36,19.93,8.4Z" fill="none" stroke="#000" stroke-miterlimit="10" stroke-width=".25"/>
    <path d="M195.89,169.66l-.96,3.35c-1.76,1.13-17.17-6.13-11.49,5.39,4.62,1.3,12.28,1.33,13.28,7.37,2.05,12.33-12.34,11.87-19.87,7.24l1.36-3.44c3.54.91,13.74,4.45,14.26-1.28.6-6.8-15.96-2.09-14.81-13.8.88-8.91,12.25-8.47,18.23-4.83Z" fill="none" stroke="#000" stroke-miterlimit="10" stroke-width=".25"/>
    <path d="M88.09,181.81l-6.02,21.39c-5.08,3.63-5.2-8.42-7.45-10.94-3.58,4.2-.91,14.91-8.25,13.93l-5.22-19.15,4.26.08,3.12,11.23,4.74-13.54c3.72-2.56,5.22,7.35,6.13,9.63.41,1.02-.67,1.65,1.74,1.3l3.03-13.07,3.92-.86Z" fill="none" stroke="#000" stroke-miterlimit="10" stroke-width=".25"/>
    <path d="M31.37,189.79c2.13-.37,5.47.85,6.13,3.07.73,2.44.38,14.02-.22,16.86-1.3,6.18-12.02,15.25-16.18,8.28-1.43-2.4-1.11-13.88-.43-17.08.95-4.51,6.08-10.33,10.7-11.13Z" fill="none" stroke="#000" stroke-miterlimit="10" stroke-width=".25"/>
    <path d="M33.2,194.99c-10.29-4.18-11.93,19.15-7.13,20.69,8,2.57,10.05-16,7.13-20.69Z" fill="none" stroke="#000" stroke-miterlimit="10" stroke-width=".25"/>
    <path d="M266.33,183.55c2.38.26,5.66-.63,7.83.43,4.46,2.18,5.73,18.55.01,20.11-3.01.83-4.5-1.24-6.87-1.77-1.64-.37-4.32,1.57-5.19-1.05l-.13-27.3,3.97.82.38,8.76Z" fill="none" stroke="#000" stroke-miterlimit="10" stroke-width=".25"/>
    <path d="M273.07,199.01c2.86-2.97.82-13.39-4.43-11.9-5.45,1.56-1.07,17.61,4.43,11.9Z" fill="none" stroke="#000" stroke-miterlimit="10" stroke-width=".25"/>
    <path d="M94.18,192.26c.23,8.33,7.74,2.04,9.97,2.61l.93,2.64c-10.34,9.04-18.89-.83-13.94-12.22,4.12-9.47,18.13-5.53,14.84,5.29l-11.8,1.68Z" fill="none" stroke="#000" stroke-miterlimit="10" stroke-width=".25"/>
    <path d="M102.01,187.89c.45-5.73-8.05-4.45-7.82.88l7.82-.88Z" fill="none" stroke="#000" stroke-miterlimit="10" stroke-width=".25"/>
    <path d="M227.21,188.77h-12.18c.65,8.92,10.31-.14,11.3,6.95-8.68,4.95-16.76-.98-15.57-10.78,1.73-14.31,18.7-8.45,16.45,3.83Z" fill="none" stroke="#000" stroke-miterlimit="10" stroke-width=".25"/>
    <path d="M222.85,185.29c.6-6.14-9.02-5.77-7.38,0h7.38Z" fill="none" stroke="#000" stroke-miterlimit="10" stroke-width=".25"/>
    <path d="M144.38,178.55c1.16,1.24,2.65,7.05,1.6,8.54-2.86,1.63-6.21.43-9.42,1.06-1.1.21-2.82.33-2.41,1.93,1.85,5.87,6.1,1.64,8.99,1.54,4.6-.16,1.51,4.29-2.49,4.94-16.04,2.6-12.36-19.18-4.33-20.04,2.06-.22,6.67.52,8.06,2.03Z" fill="none" stroke="#000" stroke-miterlimit="10" stroke-width=".25"/>
    <path d="M140.9,181.18c-2.78-2.62-7.94,0-6.72,4.11l7.82-.88c.38-.38-.56-2.73-1.1-3.23Z" fill="none" stroke="#000" stroke-miterlimit="10" stroke-width=".25"/>
    <path d="M257.64,200.96h-4.35v-14.36c0-1.97-6.65-3.49-7.83-.87v13.49h-4.34v-16.98c0-.83.58-1.89-.01-3.04,5.8.56,16.53-.14,16.53,8.27v13.49Z" fill="none" stroke="#000" stroke-miterlimit="10" stroke-width=".25"/>
    <path d="M292.41,196.61c.83-3.33-1.98-5.31-4.9-5.83-1-.18-5.68,1.43-5.51-2.45.12-2.81,10.83-1.09,12.93,2.72,2.15,3.91,1.07,8.83.88,12.98-.11,2.28,1.6,4.35-.37,5.65-6.42-2.46-16.27-1.64-14.33-11.77,1.16-6.06,10.52-.48,11.3-1.3Z" fill="none" stroke="#000" stroke-miterlimit="10" stroke-width=".25"/>
    <path d="M292.33,200.17l-7.74-.94c-1.12,3.51,5.7,6.95,7.44,4.4l.3-3.46Z" fill="none" stroke="#000" stroke-miterlimit="10" stroke-width=".25"/>
    <path d="M317.63,189.64l2.65.39.86,10.03c3.29-1.09,10.4,4.53,10.4,7.43v16.98c-6.73-2.18-1.73-11.45-4.14-17.18-1.52-3.61-6.3-3.43-6.3-1.54v12.63c-1.01.35-3.47-.39-3.47-1.31v-27.43Z" fill="none" stroke="#000" stroke-miterlimit="10" stroke-width=".25"/>
    <path d="M304.69,197.59c-1.99,4.44-1.63,11.49,4.14,12.48,1.38.24,3.21-.89,4.29-.25.16.1,2.24,2.89,1.03,3.76-8.56,6.15-19.65-12.72-12.26-19.89,5.58-2.35,9.68.94,13.11,5.1-3.02,3.55-6.17-3.06-10.31-1.2Z" fill="none" stroke="#000" stroke-miterlimit="10" stroke-width=".25"/>
    <path d="M205.35,170.62c.53.91-.22,3.14.24,4.55.4,1.24,6.31,3.08-.18,4.5.68,3.39-.73,9,.04,11.98.23.89,1.79.87,2.16,1.47,2.94,4.69-4.01,4.99-5.83.65-2.19-5.23,1.53-11.9-2.47-15.86l.08-1.63c3.09-.98.94-3.82,2.13-5.83.64-1.38,3.6-.22,3.83.17Z" fill="none" stroke="#000" stroke-miterlimit="10" stroke-width=".25"/>
    <path d="M124.61,169.62v23.07c0,.31,4.24,1.75,2.61,4.79-2.29.59-6.95-.23-6.95-3.05v-24.81h4.34Z" fill="none" stroke="#000" stroke-miterlimit="10" stroke-width=".25"/>
    <path d="M154.17,195.74l-2.95.8-1.26-1.37.25-18.63c1.27-1.87,3.7-.04,5.27-.13,2.65-.14,6.06-2.13,8.24.61-1.04,4.93-9.55,1.45-9.55,6.09v12.63Z" fill="none" stroke="#000" stroke-miterlimit="10" stroke-width=".25"/>
    <path d="M56.79,182.68l.13,4.68,2.07.73c2.15,3.32-1.79,3.18-2.21,5.44-.56,3.02.47,7.23-.04,10.44l2.56.53.11,4.3-5.71-.81c-2.11-3.01,2.49-14.1-2.97-14.89v-1.27c4.92-2.76-.23-9.18,6.06-9.15Z" fill="none" stroke="#000" stroke-miterlimit="10" stroke-width=".25"/>
    <path d="M46.36,186.16l.1,5.17,1.86.06c2.78,3.06-1.58,3.5-1.98,5.63-.55,3.01.48,7.22-.03,10.43l2.01.48c3.29,4.03-4.21,6.26-5.31,2.92-.73-3.72.54-8.5-.14-12.05-.37-1.92-2.58-3.23-2.58-3.5,0-.34,2.07-1.53,2.43-2.78.92-3.2-1.64-6.22,3.64-6.36Z" fill="none" stroke="#000" stroke-miterlimit="10" stroke-width=".25"/>
    <rect x="231.55" y="178.32" width="5.22" height="20.03" fill="none" stroke="#000" stroke-miterlimit="10" stroke-width=".25"/>
    <path d="M175.03,167.01c.92.9-6.11,21.9-7.15,24.61-.9,2.33-1.17,4.9-4.14,4.11l8.62-28.21,2.67-.51Z" fill="none" stroke="#000" stroke-miterlimit="10" stroke-width=".25"/>
    <rect x="111.57" y="178.32" width="3.48" height="20.9" fill="none" stroke="#000" stroke-miterlimit="10" stroke-width=".25"/>
    <polygon points="236.7 170.55 236.77 173.97 231.55 173.97 231.56 169.62 236.7 170.55" fill="none" stroke="#000" stroke-miterlimit="10" stroke-width=".25"/>
    <polygon points="115 171.42 115.05 174.84 111.35 174.85 111.36 170.49 115 171.42" fill="none" stroke="#000" stroke-miterlimit="10" stroke-width=".25"/>
  </g>
</svg>