<?xml version="1.0" encoding="UTF-8"?>
<svg id="Ebene_1" xmlns="http://www.w3.org/2000/svg" viewBox="0 0 1891.52 1868.98">
    <path
        d="
    M969,.09l-1.01,1.98c1.43.98,29.42-.76,34.56-.04,2.34.33,3.56,1.78,5.9,2.1,3.91.55,23.39-.84,24.56-.04l-1.01,1.98c1.04.71,16.32-.5,19.57-.07,1.85.24,1.31,1.87,2.12,2.06,3.7.87,9.83-.57,13.88-.06,1.91.24.95,1.92,2.87,2.16,2.62.33,13.68-.68,14.57-.07l-1.01,1.98c1.03.7,10.69-.6,13.32.03,10.31,2.47,21.16,3.93,32.15,6.02,19.87,3.79,38.09,9.85,56.22,13.94,114.11,25.71,221.24,82.11,321.08,149.7,2.62,1.78,2.99,5.55,7.25,4.33l-1.02,1.98c4.03-.82,4,4.83,8.02,4.02l-1.02,1.98c3.79-1.2,3.76,2.45,6.98,2.05l-.94,1.92c8.28,3.49,15.8,11.45,23.03,17.31,34.47,27.95,69.71,59.02,98.99,92.95,2.35,2.72,4.08,4.38,5.72,5.09,1.12.49,4.11,5.68,4.96,6.64,1.79,2.03,4.35,5.5,5.51,6.75,1.68,1.8,5.02-.16,3.77,5.31l1.98-1.02c.75,5.54,9.54,8.96,10.03,15l1.95-.98c2.73,7.3,10.05,13.18,15.03,19.53,55.12,70.32,98.88,147.37,131.34,231.12,4.33,11.18,8.6,22.36,11.69,34.63.1.39,3.8,2.71,1.97,6.71l1.98-1.01.02,7.01,1.98-1.01c.31,2.28-.48,5.2.03,7.32.18.76,1.8.6,1.97,1.37,2.61,11.88,7.35,22.98,9.99,34,.51,2.13-.28,5.04.03,7.32l1.98-1.01.02,8.01,1.98-1.01c.37,2.56-.54,5.95.03,8.32.13.56,3.82,8.82,3.96,9.37.57,2.37-.34,5.76.03,8.32l1.98-1.01c.42,2.83-.59,6.71.03,9.32,1.55,6.48,4.39,14.9,5.96,21.38,1.27,5.28.77,15.34,2.05,20.62,8.3,34.4,8.96,71.8,12.03,109.13,2.08,25.23,5.43,72.61,2,97.11-3.07,21.91-2.78,45.32-6.1,66.9-2.81,18.28-6.75,36.35-9.9,55.1-3.72,22.12-8.83,42.42-14.03,64.14-.51,2.13.28,5.04-.03,7.32l-1.98-1.01c1.19,4.21-.96,6.78-1.74,9.78-2.77,10.64-5.92,19.81-8.28,30.54-.17.76-1.78.6-1.97,1.37-.45,1.88.22,4.32-.03,6.32l-1.98-1.01c-.25,2,.43,4.45-.03,6.32-.1.41-3.84,5.99-3.94,6.39-2.68,10.48-5.62,18.27-8.07,27.57-.12.47-3.8,2.67-1.98,6.73l-1.98-1.01c1.46,3.93-1.43,4.69-1.89,5.82-33.85,84.53-76.21,159.78-132.52,231.76-3.1,3.97-8.71,8.57-9.61,13.44l-1.98-1.02c.83,4.66-5.16,7.44-7.95,10.79-5.36,6.45-11.35,15.09-16.79,21.15-4.21,4.69-11.65,9.32-13.28,15.07l-1.89-.91c-1.35,4.1-5.42,8.29-8.46,11.55-46.22,49.58-102.57,94.35-157.26,130.77-2.19,1.46-2.18,4.85-6.4,3.58l1.02,1.98c-.86-.03-1.92-.16-2.64.33-6.73,4.54-27.03,19.46-33.12,21.63-.93.33-2.22-.03-3.25.05l1.01,1.97c-6.39,1.1-12.07,6.63-17.38,9.66-246.08,140.2-543.28,165.95-813.64,60.87-41.96-16.31-85.5-37.49-124.22-58.57-3.21-1.75-6.67-6.82-10.78-5.95l1.01-1.98c-5.25.52-8.26-6.03-14.01-6.03l1.01-1.97c-1.04-.07-2.28.28-3.24-.06-3.03-1.06-16.2-11.1-20.14-13.58-81.3-51.16-153.21-116.01-215.68-191.58-9.55-11.55-21.21-23.61-27.99-36.75l-1.92.93c-4.28-11.22-16.07-19.48-20.05-30.98l-1.98,1.02c1.45-4.26-2.49-4.41-3.69-6.32-52.75-84.36-92.51-159.32-122.05-257.47-7.72-25.65-15.01-53.36-20.22-80.76-1.71-8.98-2.05-20.23-4.07-28.77s-3.89-18.57-5.96-27.38c-.82-3.51.78-9.12-.04-12.63-.19-.81-1.82-.27-2.06-2.12-.38-2.88.73-15.61.07-16.57l-1.98,1.01c-.69-1.01.49-15.4.04-18.56-.33-2.34-1.78-3.56-2.1-5.9-.63-4.52.93-28.27.04-29.56l-1.98,1.01v-79s1.98,1.99,1.98,1.99c1.02-10.17-1.31-22.7-.07-32.56.24-1.91,1.92-.95,2.16-2.87.45-3.61-.82-21.48-.07-22.57l1.98,1.01c.65-.95-.43-13.71-.07-16.57.24-1.91,1.92-.95,2.16-2.87.33-2.62-.68-13.68-.07-14.57l1.98,1.01c.6-.88-.4-11.08-.07-13.57.24-1.85,1.87-1.31,2.06-2.12,1.3-5.5.69-16,2.04-21.62,1.52-6.29,2.42-13.26,4-20,4.28-18.25,8.99-37.02,13.71-55.46,23.84-92.98,65.93-185.51,119.46-268.53,7.45-11.55,15.36-24.37,23.13-34.38,2.03-2.62,7-3.96,5.69-8.32l1.98,1.02c.36-4.44,5.09-8.17,7.59-11.46,41.05-54.28,87.21-103.07,139.64-147.59,5.76-4.9,11.17-11.72,18.74-14.01l-.97-1.93c4.6-2.02,9.57-6.64,14.23-10.06,2.39-1.76,2.59-5.14,6.79-3.96l-1.02-1.98c.86.05,1.9.12,2.63-.36,3.07-1.99,8.05-7.37,11.14-9.61,90.8-65.91,181.06-108.26,287.49-142.12,23.34-7.43,48.29-14.12,72.45-19.9,2.54-.61,6.09.56,8.62-.05,9.87-2.36,21.59-5.61,31.38-7.96,2.5-.6,11.34.64,12.32-.03l-1.01-1.98c.97-.66,9.82.56,12.32-.03,5.27-1.24,9.7-.99,14-2,.81-.19.27-1.81,2.12-2.06,3.77-.49,9.4.87,12.88.06.81-.19.27-1.82,2.12-2.06,3.13-.41,17.56.76,18.57.07l-1.01-1.98c1.19-.81,22.48.59,26.57.07,1.91-.24.95-1.92,2.87-2.16,11.13-1.4,26.36,2.91,36-2l50.57.09ZM1135.9,69.17l-147.9-19.1c-1.24,8.41-1.32,16.99-2.09,25.42-.19,2.13-2.98,5.88-.96,7.12l56.03,6.48c1,2.45-1.8,1.69-2.01,2.63-1.12,5.13-1.19,13.33-2.07,18.77-3.82,23.6-7.93,46.95-10,71l-8.93,58.57c2.69,0,5.01,1.42,7.59,1.93,6.15,1.22,12.83,1.19,18.98,2.02,3.45.47,6.86,3.61,11.34,1.94l22.57-151.92,55.54,7.04c.55-.55-.41-13.02-.06-15.56.31-2.23,1.8-3.48,2.01-4.99s.71-10.92-.05-11.36ZM907.57,71.52c-49.73-36.44-130.27-16.59-145.61,41.83-.23.86-1.78.67-1.95,1.4-.47,2.05.43,4.58-.04,6.64-.17.74-1.78.61-1.96,1.37-.96,4.03.66,10.88-.03,15.31l-1.98-1.99-.02,14.49,1.99-1.49c.82,5.22-1.1,13.56.03,18.31,1.71,7.12,4.29,14.39,5.99,22.01.47,2.11,6.2,12.56,8.11,15.85,25.76,44.3,90.5,48.63,131.09,22.5,19.67-12.67,28.25-27.26,32.8-47.98.17-.76,1.78-.6,1.97-1.37.85-3.54-.58-9.42.03-13.31l1.98,1.99v-33s-1.98,1.01-1.98,1.01c-.36-3.03.45-6.67.07-9.57-.24-1.85-1.87-1.31-2.06-2.12-.56-2.39.33-5.75-.03-8.32l-1.98,1.01c-.25-2,.42-4.44-.03-6.32-.18-.74-1.72-.55-1.95-1.41-3.47-13.09-12.54-28.11-24.45-36.83ZM1228.68,97.43c-6.7-2.51-13.86-4.44-20.58-6.96-4-1.5-18.28-8.53-21.17-7.95-.8.16-1.64.46-1.94,1.31l-9.07,24.48-1.94,1.27,50,21-53.98,144.5,35.52,13.88,53.56-144.79,4.96.39,45.96,18.53c.02-.65-.2-1.67.11-2.14,3.83-5.84,5.3-13.74,8.24-20.53.15-.34,1.43-.3,1.63-1.06.58-2.21-1.25-3.9,2.05-4.77l-.04-1.47c-1.63.34-1.94-1.83-2.69-1.99-2.83-.62-5.44-.78-8.05-1.73-27.08-9.83-55.69-21.89-82.54-31.95ZM1370.79,154.3c-1.08-.6-2.58-.12-3.8-.22,1.32,3.29-1,7.86-2.23,11.26-8.99,24.83-20.24,49.46-28.84,73.98-.31.89-3.48,1.82-1.93,5.77l-1.98-1.01c1.67,4.21-1.55,5.77-1.91,6.8-5.1,14.68-11.41,27.4-15.98,40.03-1.2,3.31-2.61,6.61-2.13,10.19l-1.98-1.01c.21,4.3-3.49,5.6-2.02,11.01l-1.98-1.01c1.43,3.27-1.82,4.13-1.97,4.72-.75,2.92-1.15,7.17-2.05,10.3l-1.98-1.01-.07,7.38c8.46,4.07,16.18,9.46,23.69,15.02,2.95,2.19,5.06,3.65,8.02,5.97,2.74,2.14,4.16,7.11,8.63,5.6l109.71-99.97-55.04,137.51,39.54,28.5c4.36-3.71,8.54-7.97,12.94-11.6s9.94-7.23,14.5-11.14,7.99-10.38,14.03-11.31l-.96-1.93c4.09-.67,8.1-6.16,11.46-9.06,12.06-10.39,24.74-21.12,37.18-31.35l51.34-46.11c-11.61-6.46-23.35-13.31-31.08-24.42l-1.36-.05-22.91,22.58-3.36,1.66-22.52,23.41-1.76-.71c.88,3.96-1.99,2.8-3.67,4.38-7.24,6.76-13.69,15.62-21.98,21.01l-28.35,26.62c-.47-1.89.39-3.01.94-4.55,9.22-25.35,20.92-47.65,29.17-71.63.39-1.12,3.52-2.65,1.89-6.83l1.98,1.01c-1.49-3.87,1.49-4.77,1.89-5.83,1.76-4.74,3.01-9.13,4.15-13.46.14-.54,3.63-1.93,1.98-5.73l1.98,1.01c-.06-1.43-.13-2.81.29-4.21,1.68-5.64,5.92-11.8,7.65-16.54.61-1.68-.47-4.4,2.06-5.76l-42.49-25.59-108.5,97.09,59.98-137.01-.58-1.98c-3,1.01-3.12-1.28-4.22-1.89-9.99-5.56-15.53-8.82-23.72-17.11-.75-.76-1.3-2.58-1.66-2.78ZM467.42,185.67c-1.96-1.88-1.53-4.44-5.39-3.08-2.53.89-2.96,4.27-6.05,3.49l1.02,1.98c-4.94-1.05-6.89,6.15-11.98,6.05l.95,1.93c-3.64-.4-4.79,4.04-7.96,5.51-.18,1.29,5.88,5.94,6.93,7.27,24.82,31.39,49.4,65.47,75.08,97.49,1.84,2.29,10.07,8.07,7.96,10.75l-143.57-75.04c-2.63-.65-3.36,2.71-5.18,4-9.89,7-19.07,13.22-28.43,21.12-.91.76-4.84,4.59-4.9,5.45l106.61,147.46c2.19,1.05,4.95-4.05,6.54-5.26,3.06-2.32,7.13-3.54,9.62-5.06,1.9-1.16,2.08-5.15,6.33-3.68l-1.02-1.98,6.65-2.37,3.34-3.13-75.99-100.53-1.98,1.02c2.2-2.85-9.73-12.28-8-14l141.55,73.05c4.06-.8,4.23-4.29,6.82-6.66,7.39-6.77,17.69-12.78,26.1-18.38l7.52-5.52c.81-1.68-4.51-6.5-5.61-7.92-5.44-7.09-12.6-14.77-16.42-22.53l-1.92.93c-5.44-11.3-15.67-21.28-23.63-31.41-20.11-25.57-42.78-59.72-64.98-80.96ZM1123.77,291.42c-176.95-45.01-351.62-21.94-510.94,62.78-1.2.64-1.38,3.04-4.84,1.89l1.02,1.97c-5.72,1.41-10.78,4.75-15.8,7.68-16.3,9.51-31.5,20.52-46.89,30.66-1.98,1.3-2.05,5.07-6.33,3.68l1.02,1.98c-3.19-.62-4.09,2.7-6.26,4.33-50.26,37.8-90.32,77.28-128.81,126.89-2.63,3.39-7.64,6.82-8.01,11.74l-1.92-.96c-3.85,9.46-12.07,17.44-17.65,26.37-.61.98-.14,2.39-.69,3.31-1.15,1.9-5.15,2.08-3.68,6.33l-1.98-1.02c-.04,2.81-2.77,5.86-3.91,7.85-3.61,6.32-7.95,13.01-12,20-79.78,137.7-104.11,307.82-71.19,464.75,15.1,71.96,39.37,130.15,74.76,191.75.57,1,1.98,5.23,2.35,6.67l1.98-1.02c.09,1.03-.31,2.36.04,3.27,1.78,4.58,10.61,13.78,11.92,17.51.34.96-.01,2.2.06,3.24l1.98-1.02c-.11.91-.08,1.76.4,2.58,32.77,55.29,96.59,120.19,147.14,160.44,47.23,37.61,119.17,80.34,173.22,98.92,2.4.82,6.62,1.57,9.25,2.08l-1.01,1.98c6.1-.59,11.54,2.5,16.68,4.35,12.41,4.48,24.92,8.38,37.78,11.7,3.4.88,8.79,3.26,12.1,3.91,2.04.4,4.37-.11,6.46.06l-1.01,1.98c2.83.42,6.72-.6,9.32.03,95.81,23.04,201.58,25.38,300.13,3.93,25.43-5.54,51.2-14.77,74.87-19.96.38-.08,2.61-3.84,6.69-2l-1.01-1.98c4.08,1.84,6.31-1.91,6.69-2,13.41-2.94,23.74-8.95,36.12-13.91,2.48-.99,6.47-1.9,9.2-2.11l-1.01-1.98c3.7,1.5,4.88-1.48,5.33-1.67,121.45-50.19,238.96-158.98,304.55-272.19,126.5-218.35,119.29-488.86-19.45-696.61-2.97-4.44-6.79-9.82-8.43-14.55l-1.98,1.02c1.39-4.27-2.37-4.34-3.68-6.33-35.31-53.24-84.83-102.64-136.87-142.1-6.17-4.68-11.87-11.37-19.42-13.62l.94-1.92c-3.21.4-3.19-3.25-6.98-2.05l1.02-1.98c-6.34-1.23-10.15-6.25-15.38-9.64-57.75-37.44-127.3-69.59-195.86-87.03ZM305.34,331.73c-2.67-2.39-4.83-7.04-9.04-8.52l-25.09,24.05.24,2.86,34.33,30.14c-1.61,3.14.11,1.05,1.82,2.17,2.78,1.81,6.67,7.77,10.37,7.68l-.97,1.95c5.26,1.34,9.51,8.11,13.77,11.97,15.29,13.86,31.08,26.44,46.41,40.13,9.83,8.79,18.93,18.58,29.31,26.9l7.83-10.64,15.35-14.63.84-2.72-22.48-19.71c-33.06-32.04-68.23-60.73-102.7-91.62ZM1614.9,352.19l-1.93.36c-4.9,4.21-9.45,9.07-14.41,13.12-33.13,27.03-66.63,54.49-99.32,81.4-2.29,1.89-8.21,3.58-7.25,7.02l-1.82-.82c-1.31,5.57-17.07,10.47-14.18,16.06,9.79,9.22,17.4,19.82,26.06,29.97,2.06,2.42,6.31,4.34,5.98,7.77l1.95-.97c2.3,5.68,8.65,11.43,13.03,16.53,1.69,1.96,3.29,3.85,5.06,5.91,7.87,9.13,15.7,18.45,23.53,27.56,1.14.32,5.56-3.13,6.62-4.06,1.97-1.72,3.44-4.38,5.22-6,1.9-1.73,12.81-8.79,11.47-10.85l-52.85-60.04,39.32-31,43.11,53.92c1.45.17,18.95-17.5,23.51-16.98l-43.05-55.56,30.63-27.44,2.5.61c.35,4.36,3.84,5.57,5.89,8.17,11.07,14.04,31.28,33.57,39.64,47.63.48.81.43,1.7.39,2.6l6.2-4.73,1.78.74c-.86-3.91,2.06-2.94,3.96-4.54,3.44-2.9,6.98-5.76,9.78-7.83,5.3-3.91.63-4.39-1-6.71-1.1-1.57-2.33-4.52-3.46-5.88-3.15-3.78-8.93-6.42-9.33-12.02l-1.93.97c-.64-4.61-6.76-8.16-9.95-11.8-11.42-13-20.59-25.43-32.13-38.41-4.35-4.89-10.07-8.68-13.02-14.69ZM233.71,396.41c-1.28-.56-2.4-.34-3.71-.34-.06,6.3-6.2,11.08-9.64,16.37-2.82,4.34-5.99,11.08-8.73,15.27-8.61,13.19-19.46,25.95-25.68,40.33l-1.92-.93-6.05,12.98-1.98-1.02c1.38,4.28-2.37,4.34-3.68,6.33-.57.86-.08,2.5-.65,3.36-1.34,2.02-5.06,2.05-3.68,6.32,3.43-1.14,3.59,1.31,4.84,1.91,14.41,6.89,34.41,20.82,48.94,30.37,22.92,15.06,48.29,35.27,72.09,48.58,1.8,1.01,4.05,2.01,6.14,2.17l-1.01,1.97,3.24.06,17.72,11.89c1.48-1.33,1.22-3.53,1.34-3.71,16.67-22.86,30.94-45.1,47.1-68.79,1.97-2.89,6.59-5.61,5.61-9.46l1.98,1.02c-.28-4.17,8.3-9.81,5.84-13.85-7-3.78-14.32-7.73-19.79-13.54l-1.99-.56-42.48,63.89-42.62-30.51c-.92-3.42,1.34-3.08,2.37-4.67,11.36-17.61,23.48-34.58,34.66-52.27-4.25-1.49-21.61-17.18-24.87-14.38-.21,4.95-4.38,7.98-6.43,11.12s-4.05,7.41-6.07,10.39c-7.25,10.7-15.88,20.7-21.72,32.27-3.3,1.02-4.94-2.74-6.72-3.78-7.51-4.41-14.96-9.34-22.51-13.77-1.23-.73-6.12-1.95-7.32-2.68-.6-.36-3.02-2.55-2.31-3.64,4.19-.8,4.35-5.47,6.12-8.16,5.08-7.76,10.64-15.52,15.47-23.25,6.71-10.74,12.78-22.08,20.37-32.13-.16-1.11-16.2-11.76-18.98-11.5l1.02-1.98c-3.26,1.33-4.05-1.57-4.29-1.68ZM1742.99,527.07l-21.98-35.98c.11.75-.11,1.53-.74,1.98-4.26,3.05-9.44,5.92-13.53,8.3-40.24,23.3-78.64,45.47-118.12,68.35-2.99,1.73-15.44,9.62-17.4,10.31-.95.33-2.2,0-3.23.06l.73,1.8-1.6,1.54,18.09,30.42,4.05.18,153.74-86.96ZM167.72,564.4c-1.17-.54-20.25-.73-22.03-.29-14.55,6.64-20.16,15.87-27.06,29.62-11.04,21.99-22.09,45.89-29.72,68.59-.32.97-3.33.84-1.75,5.08l167.78,72.65,12.64-32.99-69.57-32c.23-2.27-.49-5.21,0-7.31.18-.75,1.8-.61,1.97-1.36.95-4.32,1.37-7.52,3.87-11.91,4.03-7.06,9.9-8.2,17.77-9.28l73.38,2.87c.37-5.7,2.48-12.55,4.34-18.16,2.23-6.75,5.21-13.19,7.65-19.84-1.18-1.12-27.79.68-32.56.07-1.91-.24-.95-1.92-2.87-2.16-9.21-1.16-42.05-1.23-51.13,0-.47.06-7.88,3.97-8.2,4.32-.71.79.51,3.68-1.72,2.75s-.19-3.7-.47-5.33c-.12-.71-1.87-.57-2.04-1.32-1.38-6.18-1.42-7.09-3.67-12.66-.85-2.11-1.83-4.46-2.35-6.68l-1.98,1.02c.05-1.29.19-2.5-.3-3.75-.26-.66-9.49-9.52-10.08-9.91-.74-.48-1.77-.4-2.64-.36l1.02-1.98c-4.25,1.45-4.41-2.49-6.32-3.68-3.76-2.35-9.17-3.5-13-4.34-.73-.16-.68-1.54-.95-1.67ZM1772.85,590.24c-3.31-1.62-3.86,1.42-4.12,1.53-1.46.65-2.8.02-4.02.34-.47.12-2.67,3.8-6.73,1.98l1.01,1.98-7.01.02,1.01,1.98-147,51.02,36.06,104.91c2.07.29,4.1.21,6.16-.21,3.07-.62,14.92-4.53,17.98-5.81.79-.33,1.85-2.37,3.86-2.49l-.07-5.43-1.98,1.01c1.65-3.8-1.84-5.19-1.98-5.73-4.83-18.34-13.25-36.38-18.05-54.57-.23-.89-3.89-.8-1.08-4.3l140.04-48.49-14.08-37.75ZM98.99,730.08l-27.96-3.95c-.86,5.6-2.67,11.14-3.82,16.68-5.18,25.13-10.79,51.33-15.16,76.84-.48,2.79-2.5,17.26-1.62,18.49l178.06,34.92c.51-.03,3.23-8.43,3.45-9.52,5.69-28.63,8.63-58.11,15.49-86.51,1.05-4.36,2.01-8.73,3.56-12.94-3.24,1.43-4.21-1.86-4.69-1.98-4.11-1-11.14-1.02-15.77-2.07-2.62-.59-4.91-3.13-8.54-1.97l-14,72c-3.16.32-5.08-2.55-7.97-3.52-8.97-3.02-21.72-4.64-31.29-6.71-3.36-.73-6.4-2.93-10.74-1.76-1.32-4.22,1.62-7.16,2.06-10.45,1.04-7.73,2.28-13.38,3.92-20.24,2.16-9,1.94-20.46,4.04-29.63.18-.8,1.76-.24,2.05-2.12.9-5.85-.13-4.37-2.65-5.95-4.34-2.72-4.31-.9-8.87-1.67-1.55-.26-2.79-1.61-4.99-2.01-2.75-.49-7.69,1.71-7.64-1.83l-1.9-.11-15.02,68c-2.65.99-1.57-1.73-2.64-2.02-2.01-.54-8.46.63-9.36,0l1.01-1.98c-.82-.56-9.33.36-11.57.07-1.85-.24-1.31-1.86-2.12-2.06-2.74-.65-6.67.43-9.76-.07-2.17-.35-4.46-3.02-7.56-1.95l-.04-2.53,12.05-71.46ZM1823.99,744.08l-177.93,32.06,17.07,110.8,7.31.08,21.56-3.95c1.39-3.39-1.85-4.12-1.98-4.68-1.34-5.62-.73-16.19-2.05-21.62-.18-.76-1.77-.62-1.96-1.38-1.54-6.4-.6-18.47-2.04-24.62-.19-.81-1.81-.27-2.06-2.12-.49-3.76.88-9.43.06-12.88-.18-.76-1.76-.61-1.95-1.37-.55-2.21-.32-6.7,1.97-7.82l12.01-.5-1.01-1.98c.91-.62,11.95.41,14.57.07,2.33-.3,11.6-3.47,14.12-4.06s6.47.36,9.32-.03l7.96,63.33c2.99,3.47,5.83.05,8.59-.28,2.6-.32,5.38.32,7.89-.1,3.58-.59,7.3-3.63,11.55-1.94l-7.98-64.99c3.2,1.35,4.21-1.87,4.68-1.98,5.52-1.35,17.3-.76,22.62-2.05.76-.18.62-1.77,1.38-1.96,2.23-.54,9.43.57,10.32-.03l-1.01-1.98h3.01c-1.91,2.4.72,1.72.95,2.7,3.85,16.67,6.47,37.85,9.12,54.72.79,5.05,3.15,9.77,1.93,15.58l29.93-5.05-17.95-111.95ZM53.74,895.47c-1.67-.46-12.25-2.8-12.74-2.38,2.59,13.53.92,26.89,1,40.49l.94,2.07,94.07,22.44-1.01,1.98c2.08.18,4.43-.36,6.46.06,13.04,2.67,25.03,7.26,36.23,9.93,1.78.43,8.01-1.26,7.32,1.51-.65,2.61-5.89,2.2-7.33,2.52-4.47,1-13.76,6.82-18.36,7.97-1.34.34-2.93-.09-4.33.02l1.01,1.98c-4.24-1.7-5.85,1.63-6.77,1.93-21.66,7.23-40.42,14.53-60.06,21.96-12.52,4.74-25.34,9.43-37.98,13.82-1.63.57-3.72-.05-5.22.78-3.36,1.86.76,17.23,1.01,21.03.47,7.18.2,15.27.02,22.48l179.95-70.73c1.43-7.16-1.62-14.05-1.99-20.73-.46-8.5,1.11-19.01.1-27.07-.5-3.98-5.35-3.02-7.38-3.48-.77-.17-.63-1.81-1.36-1.97-21.44-4.67-44.27-11.45-68.52-18.32-31.85-9.03-64.14-19.86-95.06-28.31ZM1843.99,919.08l-180.99-4.99c.93,8.05,2.13,20.51,1.08,28.56-.24,1.85-1.87,1.31-2.06,2.12-.51,2.13-.15,5.78,1.98,6.82l54.57.42c2.63,4.66,18.72.26,20.35,2.16-1.01,9.18.57,18.62-4.65,26.63-2.25,3.45-5.14,3.7-8.44,5.4-1.04.54-6.14,3.75-6.55,3.85-16.4,4.38-30.44,10.7-45.03,15.95-2.89,1.04-12.97,2.37-13.93,5.33-2.42,7.45,1,26.2-.25,35.3-.36,2.59-1.91,3.17-2.05,5.44,1.88,1.69,12-4.54,14.47-5.48,18.54-7.02,41.88-13.24,59.74-22.8,5.04-2.7,10.27-6.47,12.8-11.71,1.14-.6,5.6,11.17,6.6,12.88,15.66,26.82,58.02,31.42,77.96,6.66,5.39-6.69,6.81-12.34,8.44-19.87.16-.74,1.78-.6,1.96-1.36.61-2.53-.55-6.07.04-8.63.19-.81,1.81-.27,2.06-2.12,2.68-20.48-2.83-47.65-.16-68.13.24-1.85,1.87-1.31,2.06-2.12.67-2.85-.41-7.2.02-10.31ZM86.93,1096.12c-1.12-1.03-10.67,2.48-12.52,2.88-2.41.51-13.76,1.48-14.31,3.65l36.88,128.44,28-5.01-14-47.99c2.29-.31,5.19.48,7.32-.03.46-.11,6.91-3.85,7.37-3.96,2.12-.51,5.03.29,7.31-.03l-1.99-1.98c2.28-.32,5.18.48,7.31-.03,11.49-2.74,24.9-9.41,36.37-11.96,22.43-4.98,45.12-14.18,68.02-19.98,3.34-.85,7.76-1.18,11.33-2.51l.9-1.14-8.09-37.73-2.32-1.68-143.51,45.01-14.08-45.95ZM275.4,1195.7c-1.34-3.57-3.45-8.69-4.35-12.18-.61-2.36,1.19-6.32-2.04-7.43-2.33,2.52-4.36,7.11-6.06,9.23-9.11,11.38-47.27,54.42-48.9,65.32-.49,3.31.22,7.05-.06,10.43-2.89.24-3.36-3.99-5.47-6.02-5.73-5.52-20.21-10.56-28.01-9.97-9.47.72-28.16,9.16-35.03,15.96-26.08,25.79-3.82,62.2,8.62,88.19,5.29,11.04,11.05,22.43,16.23,33.52.32.68,2.94,1.45,1.72,5.26,4.69,2.45,6.34-2.52,8.18-3.56,4.85-2.74,13.1-5.91,18.95-8.49,1.11-.49,1.43-3.11,4.82-1.89l-1.01-1.98c4.79,1.44,4.76-2.96,9.01-2.02l-1.01-1.98c3.29,1.26,3.84-1.42,4.34-1.67,12.91-6.25,26.06-12.74,38.33-18.68.5-.24,1.05-2.93,4.34-1.67l-1.01-1.98,75.1-37.66.17-3.03-18.75-32.32-66.5,37.01-8.78-20.74c-1.51-9.96.42-13.05,5.94-20.63l40.66-47.35c1.05-3.52-5.64-14.3-7.27-18.36-.71-1.77-1.68-4.01-2.16-5.29ZM1727.99,1287.08h-32c1.16,6.32-.94,13.22-.05,19.55.33,2.34,1.78,3.56,2.1,5.9.57,4.07-.51,9.3-.06,13.55l-9.25-6.28c-32.86-15.46-65.1-41.39-98.92-56.83-.83-.38-3.96-4.07-6.71-1.76-.57.48-4.28,11.46-5.57,13.92-1.55,2.94-10.89,16.01-10.49,17.34l147.42,87.64,1.44-.1,17.62-29.4c-2.91-21.04-6.03-42.24-5.53-63.53ZM1533.73,1352.38c-1.61-.55-3.11-.33-4.75-.3l1.01,1.98-4.01.02,1.02,1.98c-7.39,2.46-14.81,10.13-20.28,16.07-.81.88-1.69,3.86-2.97,4.61-.4.23-1.64-.75-1.72-.64-4.18,5.49-9.53,15.87-12.37,22.65-.2.47-3.17,1.62-1.67,5.33l-1.98-1.01c-.25,2,.42,4.44-.03,6.32-.47,1.99-1.33,5.07-2,8.01-.17.74-1.78.61-1.96,1.37-.4,1.69-.36,9.9-.1,11.88.24,1.85,1.87,1.31,2.06,2.12.6,2.56-.56,6.09.04,8.63.09.36,3.67,1.99,1.99,5.69l1.98-1.01c.62,5.47,5.18,12.04,8.43,16.55,15.52,21.54,61.44,59.09,87.04,63.49,11.36,1.95,24.65.73,34.67-4.17,12.69-6.21,28.22-23.61,31.89-37.13.11-.4,3.86-6,3.95-6.41,1.9-8.37,3.23-23.22,2.1-31.89-.24-1.86-1.89-1.3-2.07-2.11-.7-3.29-.63-5.69-2.38-8.95-11.18-20.84-43.31-38.73-67.08-35.3-17.16,2.48-43.67,31.16-43.65,48.44,0,3.96,1.78,7.86,1.09,11.99l-1.99.48c-12.31-16.52-27.24-26.13-23.97-49.43.71-5.07,5.23-9.52,5.99-14.54l1.92.98c1.47-5.14,7.6-11.66,11.48-15.58,4.67-4.71,11.06-9.41,16.63-13.01.02-3.49-2.8-2.99-3.65-3.8-4.01-3.81-7.32-6.25-11.63-9.66-.85-.67-2.82-3.57-3.04-3.64ZM357.73,1360.4c-.57-.26-10.56-2.14-12.18-2.37-13.25-1.84-33.33,3.7-43.81,8.09-19.6,8.22-48.78,38.57-57.45,58.75-19.43,45.26,10.97,92.78,50.89,113.32,1.09.56,6.1,3.78,6.51,3.87,1.47.33,3.16-.3,4.64.03.76.17.6,1.78,1.37,1.97,8.16,1.96,34.78-.3,42.64-1.99.38-.08,2.59-3.84,6.68-1.99l-1.01-1.98c1.03-.09,2.36.31,3.27-.04,9.5-3.69,17.05-11.07,25.05-17.65.72-.59,2.67-.05,3.37-.64,14.23-11.89,33.41-34.46,38.03-52.46,8.41-32.74-10.27-70.73-36.96-89.26-2.35-1.63-2.51-5.23-6.76-3.96l1.02-1.98-10.02-4.02,1.02-1.98-5.01-.02,1.01-1.98c-1.71-.18-3.7.36-5.32-.03-.44-.1-6.11-3.28-6.95-3.66ZM1410.68,1488.39c-.41-.52-1.59-.73-2.08-1.37-1.46-1.9-1.93-4.49-4.11-5.92-7.2,8.09-18.65,14.62-26,21.98-.88.88-2.6,2.7-2.02,4.01l103.56,129.96,1.95-.98.07,2.93c5.12,1.88,4.96-5.92,9.88-3.94l.06-2.99c2.24,2.01,2.89-1.71,4.76-2.93,2.37-1.55,11.45-5.75,12.94-7.36,1.89-2.04,5.01-13.56,6.4-16.89,3.65-8.74,7.5-17.45,12-26.01.43-.81,1.94-.89,1.95-1.37-.15-3.74-4.2-4.95-5.73-6.81-2.37-2.88-4.8-7.7-7.05-10.56s-6.88-5.3-7.42-9.84l-3.84-.22c1.34,4.29-2.42,4.36-3.69,6.32-3.21,4.93-7.77,18-10.66,24.36-.22.49-3.07,1.25-1.65,4.79l-2.51.53c-2.9-3.66-5.39-8.37-8.23-11.94-22.21-27.9-45.87-56.73-68.58-85.75ZM539.74,1520.39c-1.18-.48-2.41-.6-3.62-.16l-33.24,51.72c-3.74,1.48-3.56-1.3-5.09-2.2-6.66-3.95-12.97-8.33-19.95-11.78-16.52-10.26-35.97-15.87-53.99-7.78-11.13,5-24.74,20.6-27.88,32.17-.24.88-1.72.6-1.93,1.44-1.96,7.7-3.17,20.79-2.12,28.86.24,1.86,1.89,1.3,2.07,2.11,1.61,7.53,4.53,14.08,10.06,20.54,4.06,4.74,10.19,8.63,14.39,13.4l49.56,35.84,3.06-1.19c20.06-29.1,39.34-58.56,59.37-87.82,10.8-15.78,21.62-32.73,31.91-47.13,2.1-2.94,7.26-4.37,5.68-10.32-1.01-.09-2.35.29-3.23-.03-.51-.18-6.15-5.11-7.08-5.67-4.57-2.77-10.99-5.69-15.38-8.62-.69-.46-2.24-3.23-2.57-3.36ZM1306.99,1580.08c1.32-.86,15.95.64,19,0-.84-8.69-7.46-15.26-8.01-24.01l-1.99,1.02-.55-3.08c-4.73.63-10.48-.6-15.02,0-1.85.24-1.32,1.87-2.12,2.06-3.99.91-9.51.8-13.76,2.06-21.39,6.37-42.63,22.3-47.3,45.71-7.82,39.18,17.61,100.88,49.5,123.93,3.01,2.17,3.02,5.74,8.25,4.33l-1.01,1.98c4.07-1.84,6.31,1.9,6.69,1.99,2.06.46,4.57-.42,6.64.04.79.17.26,1.82,2.11,2.06,3.99.52,17.15.52,21.13,0,1.85-.24,1.31-1.87,2.12-2.06,1.89-.44,4.31.21,6.32-.03l-1.01-1.98c4,1.56,5.56-1.36,6.34-1.67,29.67-12.04,43.22-43.26,31.89-74.06-14.57-39.59-50.34-53.31-85.46-27.24-6.22,4.62-13.3,15-12.76,22.96l-3.52-.97c-2.78-16.09-9.04-27.68-4.36-44.42,4.39-15.71,20.45-25.97,36.24-26.59,1.04-.26.56-1.96.65-2.02ZM651.72,1578.4c-5.38-2.29-23.15-3.18-29.28-2.38-12.08,1.58-27.16,15.38-32.77,25.27-2.4,4.23-7.03,14.11-7.62,18.33-.65,4.61-.74,19.43-.13,24.02.24,1.84,1.81,1.23,2.05,2.16,4.93,19.03,24.35,28.17,37.05,43.04,5.88,6.89,5.35,15.66,0,22.77-1.09,1.45-5.13,4.97-7.04,4.48l1.02,1.98c-5.16-.2-8.68,3.37-14.32,1.98-.77-.19-.6-1.79-1.37-1.96-13.94-3.06-24.25-12.66-36.08-22.01-1.45-1.15-3.72-1.02-4.73-3.99l-2.39,1.16c.38,4-3.92,7.07-5.76,10.2-1.54,2.62-3.43,7.42-4.71,10.3-.16.37-1.45.35-1.65,1.01v2.61c.42,1.7,11.12,7.32,13.25,8.72,1.87,1.23,5.16,4.34,7.1,5.66.72.49,1.79.36,2.64.33l-1.02,1.98c3.44-1.18,3.69,1.31,4.83,1.89,6.42,3.29,13.35,6.53,19.45,8.14.48.13,2.67,3.79,6.73,1.98l-1.01,1.98c2.29.31,5.18-.47,7.32.03.81.19.27,1.82,2.12,2.06,7.38.96,16.92-.87,24.57-.09l-1.01-1.98c14.12-1.37,26.44-16.73,31.2-29.31,7.71-20.38.46-35.27-12.68-50.71-11.72-13.77-38.27-30.57-23.52-51.49,9.84-13.96,24.69-8.41,37.03-2.01s22.39,15.54,33.49,23.49l14.1-27c-.78-2.74-14-10.71-17.3-12.77-12.85-8.03-26.61-14.36-39.58-19.87Z" />
    <path
        d=" M1523.49,656.08c.91.19,2.75,1.76,3.38,2.62,60.95,126.86,77.85,272.28,47.44,410.2-20.36,92.32-62.95,174.65-116.36,249.18l-1.81-.85c-.75,3.74-4.1,5.17-6.1,7.62-74.24,91.04-159.64,155.05-267.23,197.35-14.02,5.51-25.27,9.97-38.99,14.18-4.88,1.5-9.48,4.65-14.85,3.7l1.01,1.98c-2.01.24-4.43-.41-6.32.03-.81.19-.27,1.82-2.12,2.06-2.02.26-4.46-.33-6.57-.07l1.01,1.98c-2.28.31-5.19-.48-7.32.03-.56.13-8.82,3.82-9.37,3.96-2.37.57-5.76-.34-8.32.03l1.01,1.98c-2.83.42-6.71-.59-9.32.03-.85.2-10.13,3.93-11.12,4.06-2.9.38-6.54-.43-9.57-.07l1.01,1.98c-.82.56-9.33-.36-11.57-.07-1.85.24-1.31,1.87-2.12,2.06-3.26.77-8.36-.72-11.62.04-12.06,2.84-21.8,2.33-34.25,3.9-1.91.24-.95,1.92-2.87,2.16-7.89,1-18.24-1.15-26.13-.16-1.91.24-.95,1.92-2.87,2.16-15.09,1.91-40.11-.04-55.02-2.13-8.1-1.13-18.95,1.16-27.12.13-1.91-.24-.95-1.92-2.87-2.16-7.67-.97-14.61-.8-23.02-1.97-3.79-.53-8.6.49-12.55.04l1.99-1.98-15.99-.02,1.99-1.98-12-.02,1.01-1.98-12.01-.02,1.01-1.98c-2.83-.42-6.71.59-9.32-.03-1.63-.39-9.51-3.52-11.37-3.96-2.14-.5-5.03.28-7.32-.03l1.01-1.98c-2.42-.29-5.26.37-7.57.07-1.85-.24-1.31-1.87-2.12-2.06-2.14-.5-5.03.28-7.32-.03l1.01-1.98c-2.28-.31-5.2.48-7.32-.03-10.9-2.61-22.77-8.52-33.44-11.9-72.31-22.95-152.96-69.77-212.43-122.15-18.01-15.86-33.98-33.92-51.39-50.19-.04-.69-.42-1.66-.42-2.23v-700l1.5-1.5h1053ZM721.72,750.4c-6.95-3.2-47.88,1.67-56.19,3.72-14.28,3.53-34.5,12.48-47.17,20.33-4.83,2.99-8.89,8.37-14.34,9.67l.96,1.93c-.85.02-1.89-.09-2.61.38-10.55,6.92-31.95,35.73-36.71,47.32-.18.44-3.18,1.65-1.67,5.34l-1.98-1.01c.94,4.25-3.46,4.23-2.02,9.01l-1.98-1.01c1.84,4.08-1.91,6.31-2,6.69-1.46,6.64-4.53,13.94-5.99,20.01-.54,2.23.58,9.43-.03,10.32l-1.98-1.01v52.01s1.98-1.01,1.98-1.01c.36,3.03-.45,6.67-.07,9.57.92,7.06,7.03,21.14,9.74,27.76,29.52,72.18,113.42,111.01,191.55,88.38,99.41-28.79,142.96-141.52,90.97-231.39-13.89-24-37.88-46.14-62.84-57.66-.45-.21-1.09-2.95-4.34-1.67l1.01-1.98c-3.31,1.26-3.82-1.41-4.34-1.67-8.21-4.05-28.46-10.18-37.35-12.32-5.13-1.23-6.55,1.07-12.58-1.7Z" />
    <path
        d=" M411.99,1287.08l-7.67-8.32c-3.37-10.62-16.74-23.47-20.28-33.44-.33-.94.03-2.22-.05-3.25l-1.98,1.01c1.16-4.18-3.18-3.84-2.02-8.01l-1.98,1.01c1.16-4.18-3.18-3.84-2.02-8.01l-1.98,1.01-.02-5.01-1.98,1.01-.02-5.01-1.98,1.01c1.49-3.74-1.46-4.84-1.67-5.33-4.68-10.96-10.98-22.32-15.98-34.03-59.75-139.89-67.18-291.31-21.06-440.86,7.89-25.59,18.74-49.78,28.83-73.97.45-1.07,3.12-1.47,1.89-4.83l1.98,1.01c-1.49-3.74,1.46-4.84,1.67-5.33,3.38-7.91,7.05-15.85,10.68-23.34.24-.5,2.93-1.05,1.67-4.34l1.98,1.01c-1.22-3.46,2.42-5.07,3.64-7.37,49.2-92.89,144.49-185.89,237-236,2.32-1.26,3.91-4.83,7.38-3.64l-1.01-1.98c3.43,1.18,3.7-1.32,4.83-1.89,79.13-40.1,161.01-69.72,253.75-77.03,134.6-10.62,272.66,17.91,386.05,83.28,3.64,2.1,14.25,10.57,17.13,11.58.96.34,2.2-.01,3.24.06l-1.01,1.98,4.01.02-1.01,1.98c3.7-1.25,3.81,1.47,4.74,1.98,44.67,24.35,101.98,77.72,136.25,117.55,18.2,21.16,40.93,49.18,53.33,72.16.37.68,3.57,1.79,2.69,4.31H413.49l-1.5,1.5v687.5Z" />
    <path
        d=" M868.59,89.5c14.85,6.68,22.99,19.68,27.55,34.93,1.16,3.87.99,8.65,1.9,11.93.23.83,1.75.68,1.93,1.41.5,2.1.5,27.53,0,29.62-.09.38-1.74,4.33-2.42,6.75-3.26,11.52-8.43,22.12-18.01,29.52-5.39,4.16-8.93,5.13-14.86,6.44-.76.17-.6,1.78-1.37,1.97-1.93.46-23.69.46-25.63,0-.38-.09-2.64-3.82-6.69-1.99l1.01-1.98c-1.39-.09-2.94.3-4.28-.05-7.8-2.04-18.23-20.16-21.44-26.71-10.87-22.16-13.03-56.45,3.71-78.76,13.49-17.97,38.36-22.19,58.6-13.08Z" />
    <path
        d=" M359.61,1396.49c13.37,5.26,26.92,22.69,30.41,35.87.23.86,1.77.67,1.95,1.41,1.2,4.94-.83,13.86.01,19.32l-1.98-1.01c1.5,3.7-1.47,4.87-1.67,5.34-7.43,17.88-43.13,47.89-61.9,50.61-32.48,4.71-63.68-31.85-50.86-62.86,5.79-14,26.4-33.07,39.11-40.89,14.18-8.73,28.49-14.25,44.93-7.78Z" />
    <path
        d=" M165.7,606.41c4.02,3.42,10.94,5.18,13.93,11.03.52,1.01.16,2.14.45,2.8.49,1.12,1.76.58,1.99,2.27.32,2.4.31,9.72,0,12.13-.24,1.85-1.87,1.31-2.06,2.12-.5,2.14.28,5.03-.03,7.32l-1.98-1.01c-.25,2,.42,4.44-.03,6.32-.17.7-4.99,10.26-5.88,11.55-.31.46-.09,1.49-.11,2.13l-45.87-16.11c-3.02-2.6,5.61-12.94,7.25-16.02,3.97-7.47,6.5-15.88,12.6-22.17,4.26-4.39,13.9-2.54,19.73-2.37Z" />
    <path
        d=" M1764.99,956.08c.09-.23,3.5-2.13,4.43-2.1,4.33.11,9.58,1.94,14.03,2.15,10.46.48,21.08-.45,31.54-.03.5.36-1,1.28-1,1.49v18c0,.57-1.77,9.68-2.05,10.95-2.3,10.14-4.78,13.93-14.14,17.67-.88.35-.85,1.69-1.52,1.85-1.53.36-10.09.37-11.6,0-.7-.17-.56-1.61-1.45-1.9-6.91-2.19-9.51-2.15-13.43-9.39-.78-1.44-4.81-10.58-4.81-11.18,0-4.32-.79-25.59,0-27.5Z" />
    <path
        d=" M201.75,1286.44c1.84.95,7.98,7.83,9.29,10.05.64,1.07.98,2.34.97,3.6l1.97-1.02c-1.66,4.39,2.68,6.09,3.95,8.78.53,1.13,1.55,5.92,2.39,7.91.18.42,3.01.64,1.54,4.7l-41.85,21.61c-2.15-2.58-1.42-3.92-2.05-6.26-2.36-8.76-5.71-15.54-7.98-26.05-.16-.74-1.78-.6-1.96-1.36-.32-1.35-.31-6.26,0-7.62.16-.7,1.59-.55,1.9-1.45.71-2.08.12-3.17,1.75-6.01,2.43-4.21,12.06-8.9,16.85-9.26,2.34-.18,11.37,1.43,13.23,2.39Z" />
    <path
        d=" M1608.59,1445.49c10.95,8.19,17.6,16.59,15.34,31.02-1.28,8.14-14.67,15.93-22.6,16.19-11.37.37-31.31-11.73-36.02-22.44-6.28-14.29,1.73-27.69,15.7-32.66,9.73-3.46,19.81,2.08,27.58,7.88Z" />
    <path
        d=" M1331.61,1655.5c1.64,1.31,9.02,12.58,9.9,14.57,2.01,4.57,5.09,15.72,4.43,20.45-.89,6.45-6.79,14.22-12.96,15.58l1.02,1.98c-5.78-1.02-6.99,3.5-13.32,1.98-.75-.18-.61-1.79-1.36-1.96-1.46-.32-3.16.27-4.63-.02-.36-.07-4.57-4.33-5.41-5.01-1.48-1.2-4.13-.01-3.29-3.99l-1.95.98c.03-.89.05-1.74-.43-2.54-4.49-7.55-9.93-13.17-11.56-21.99-.65-3.5.73-7.36,2.08-10.6,2.51-6,12.01-13.46,18.6-14.61,6.93-1.21,13.49.86,18.89,5.18Z" />
    <path
        d=" M464.71,1582.4c4.12,1.77,13,8.39,17,11.69,1.65,1.36,3.93-.32,3.26,3.4l-29.71,41.39c-3.22,1.09-7.1-4.62-9.79-6.79-13.07-10.53-24.64-20.09-12.9-37.94,1.13-1.72,10.56-11.71,12.14-12.04,2.41-.51,5.31.46,7.6-.06.85-.19.33-2.17,2.14-2.1.53.02,9.76,2.23,10.25,2.44Z" />
</svg>