<?xml version="1.0" encoding="UTF-8"?><svg id="Ebene_1" xmlns="http://www.w3.org/2000/svg" viewBox="0 0 1950.89 1932.4"><defs><style>.cls-1{fill:#022b79;}.cls-2{fill:#052b79;}.cls-3{fill:#f2cf48;}.cls-4{fill:#f7e290;}.cls-5{fill:#f4d047;}</style></defs><path class="cls-5" d="M451.23,150.31c8.76-4.55,14.49-6.11,24.36-11.65,45.76-25.66,96.66-50.92,141.9-70.05,28.03-11.85,56.87-20.51,86.46-28.26,2.5-.66,5.95.55,8.52-.11,1.11-.28,2.43-3.6,3.52-3.87,168.25-42.09,332.25-43.42,499.99-2.12,20.23,4.98,40.67,9.59,59.99,16.01,115.83,38.48,230.65,96.93,325.57,177.74,2.59,2.2,3.35,3.39,4.03,3.98,2.74,2.34,5.36,2.21,5.59,2.41.32.27.66,4.61,4.05,7.25,1.51,1.18,7.67,2.43,8,2.69,1,.8-2.85,5.11,5.75,4.3,17.06,18.87,34.32,37.66,52.57,55.37.75.73,3.37.02,3.68.32.44.42-.35,3.66,0,4,.37.36,3.54-.44,4,0,.29.28-.4,2.97.32,3.68,6.68,6.45,15.07,11.4,21.37,18.57,1.05,1.19-.2,4.94.33,5.73.15.23,3.07-.4,3.68.32,4.06,4.71,7.45,11.48,11.02,15.68,2.1,2.48,4.73,1.63,6.95,4.29,1.09,1.32-.18,4.87.36,5.7.15.24,3-.78,5.27,2.01,63.11,77.79,119.98,179.83,152.66,270.75,65.88,183.28,70.21,363.34,32.05,553.25-.08.17-1.88-.2-2,0-1.06,1.69-1.52,13.62-2.06,15.26-14.04,42.2-26.7,87.28-44,128-8.17,19.24-18.48,35.62-25.94,55.75-.11.29.11.71,0,1l-60.02,103.98-3.97.04-12.37,23.62c-20.27,22.92-36.84,48.4-56,72-7.4,9.11-20.57,19.87-27.33,28.67-.85,1.1-.07,3.37-.32,3.69-54.49,51.68-109.18,99.58-171.73,140.31-14.34,9.34-28.95,21.29-42.52,29.38-172.12,102.6-377.78,153.39-578.13,136.39-63.57-5.43-126.73-18.52-189.61-34.08-.21-.1.63-1.45-3.26-3.2-13.2-5.94-31.53-8.97-44.74-12.8-1.01-.54-7-5.37-8.75-5.93-2.72-.87-10.55-.59-14.5-2.12-19.34-7.48-39.86-16.19-58.75-23.95-.21-.12-.56-2.49-2.87-3.85-18.73-11.01-43.07-19.71-62.77-30.51-5.1-2.79-14.32-10.88-18.63-13.33-1.89-1.07-6.32.41-9.14-1.22-31.43-18.13-64.24-45-96.59-63.09-.34-.91.43-3.35-.03-3.98-.19-.27-3.01.38-3.67-.33-3.87-4.2-8.23-7.77-12.62-11.37-.9-.74-3.29-.02-3.67-.33-.42-.35.39-3.62-.03-3.97-.38-.31-2.79.41-3.68-.32-36.85-30.84-72.85-64.48-104-100-.74-.84-.02-3.33-.32-3.68-.37-.43-3.7.33-4,0-.37-.42.45-3.48,0-4-.19-.21-2.95.72-5.27-2.02-2.85-3.35-4.01-9.37-8.98-13.68-1.2-1.04-5.06.17-5.74-.32-.26-.19.47-3.11-.21-3.75-1.68-1.58-5.93-2.89-7.52-4.54-6.84-7.08-12.76-20.39-18.32-27.64-.17-.22-3.19.61-5.23-2.07-.91-1.19-2.41-6.77-3.07-7.64-59.82-79.09-97.83-151.32-133.7-243.63-11.11-28.59-24.43-56.81-31.88-86.3-4.68-18.54-6.42-41.51-10.13-59.69-.11-.55-5.77-8.95-5.88-9.5-4.2-21.17-7.94-48.68-10.13-68.69-.64-5.88,2.22-8.42,2.17-13.05-.01-1.03-3.98-4.91-4.02-5.29-.77-6.39.41-13.71-.09-20.21l-1.97,1.99c-.48-10.8.57-21.76.06-32.55-3.99-84.47,1.71-146.38,17.88-228.17,21.23-107.42,52.82-194.46,106.41-286.91.83-1.44,4.35-3.01,5.13-4.35,1.32-2.25-.28-5.92.82-7.75s7.97-8.29,9.63-11.02c.76-1.24-.73-5.17.37-6.98,3.5-5.71,13.44-14.73,17.33-20.63,12.01-18.23,22.65-34.48,36.03-51.94.65-.85.78-5.01,3.28-8.24,1.51-1.95,4.59-1.13,4.94-1.58,6.13-7.83,12.77-17.77,19.81-26.19,2.39-2.85,3.46-3.39,3.98-4.01,10.77-12.72,23.55-30.18,34.38-41.62.6-.63,12.48-7.28,13.93-8.78,4.89-5.07,14.17-19.36,18.07-23.22.33-.33,4.59-1.37,7.62-4.38,1.46-1.44,2.52-2.53,4-4,4.01-4,6.11-9.72,10.57-13.38,1.09-.9,3.93.27,5.46-.64,3.03-1.82,1.99-5.98,2.78-6.69,12.15-10.98,27.24-19.43,39.44-29.04.24-.19-.57-3.19,2.46-5.54,3.76-2.93,9.36-6.61,13.92-10.07.97-.73,3.26,0,3.68-.32s-.38-3.66.03-3.97,2.7.41,3.67-.33c4.87-3.69,9.73-7.73,14.63-11.37.99-.73,3.24-.01,3.67-.33s-.38-3.67.04-3.97c.33-.24,6.95-1.62,7.76-2.22,7.54-5.53,26.82-23.96,34.22-27.8ZM960.23,32.31c-14.89.71-30.2-1.4-45,1-1.51.25-3.93-.77-5,1-7.33,1.09-20.54-1.93-27,1-.68.31-1.51.3-2,1-4.84-.58-9.26.32-14,1-55.71,7.98-111.95,18.57-165.99,34.51C323.73,183.2,45.07,529.01,32.22,926.31c-1.54.77-.89-4.77-1.99,0-2.82,12.33-2.32,67.92,0,81,.22,1.24-.17,2.72.01,3.99l1.97-2.99c10.06,257.63,132.96,491.88,323.01,659.99,423.38,374.51,1077.72,282.39,1399.67-172.35,199.34-281.56,223.04-673.59,54.33-975.65-155.99-279.27-431.19-452.17-750-485-8.07-.83-15.88-1.46-24-1v-1l-45-1c-9.92-2.57-20.07-.48-30,0Z"/><path class="cls-4" d="M451.23,150.31c377.71-237.17,871.59-189.57,1196.26,113.77.75.7,3.26-.13,3.69.28.36.34-.34,2.98.36,3.64,4.78,4.55,11.57,8.6,15.53,12.48.69.68-.23,3.37.19,3.8.33.33,4.54,1.2,7.66,4.34.72.72,0,3.32.34,3.66.42.43,3.11-.5,3.8.19,1.18,1.2,4.05,7.3,4.36,7.62,1.06,1.08,4.43,1.33,5.2,2.11.94.96.32,3.04,2.61,5.41,132.61,137.76,223.85,322.34,249.96,513.42,16.23,118.73,12.47,246.47-14,362.54-.45,1.98-3.8,4.42-3.95,4.74-10.95,54.5-31.02,114.42-54.03,165.26-1.71,3.78-14.87,30.56-15.98,31.96-1.02,1.31-2.66,1.1-3.99,1.78,7.46-20.13,17.77-36.52,25.94-55.75,17.3-40.71,29.96-85.8,44-128,.55-1.64,1-13.57,2.06-15.26.12-.19,1.92.18,2,0,38.16-189.91,33.82-369.97-32.05-553.25-32.68-90.92-89.54-192.95-152.66-270.75-2.27-2.8-5.12-1.77-5.27-2.01-.54-.84.73-4.39-.36-5.7-2.22-2.67-4.84-1.81-6.95-4.29-3.56-4.21-6.95-10.97-11.02-15.68-.61-.71-3.53-.08-3.68-.32-.53-.79.72-4.54-.33-5.73-6.31-7.18-14.69-12.13-21.37-18.57-.73-.7-.03-3.39-.32-3.68-.46-.44-3.63.35-4,0s.43-3.57,0-4c-.31-.3-2.92.41-3.68-.32-18.25-17.71-35.52-36.5-52.57-55.37-8.6.81-4.76-3.5-5.75-4.3-.33-.26-6.49-1.51-8-2.69-3.39-2.64-3.73-6.98-4.05-7.25-.23-.2-2.85-.06-5.59-2.41-.68-.58-1.44-1.77-4.03-3.98-94.91-80.82-209.73-139.26-325.57-177.74-19.32-6.42-39.77-11.03-59.99-16.01-167.74-41.29-331.74-39.97-499.99,2.12-1.09.27-2.41,3.59-3.52,3.87-2.57.66-6.01-.54-8.52.11-29.59,7.75-58.43,16.42-86.46,28.26-45.24,19.12-96.14,44.38-141.9,70.05-9.87,5.54-15.6,7.1-24.36,11.65-7.39,3.84-26.68,22.27-34.22,27.8-.82.6-7.44,1.98-7.76,2.22-.42.31.38,3.67-.04,3.97s-2.68-.4-3.67.33c-4.9,3.64-9.76,7.68-14.63,11.37-.97.73-3.25.01-3.67.33s.38,3.66-.03,3.97-2.71-.41-3.68.32c-4.56,3.46-10.16,7.15-13.92,10.07-3.03,2.35-2.22,5.36-2.46,5.54-12.19,9.61-27.29,18.07-39.44,29.04-.79.71.25,4.88-2.78,6.69-1.52.91-4.36-.26-5.46.64-4.45,3.66-6.55,9.39-10.57,13.38-1.48,1.47-2.55,2.56-4,4-3.03,3-7.29,4.05-7.62,4.38-3.9,3.87-13.18,18.15-18.07,23.22-1.45,1.5-13.33,8.15-13.93,8.78-10.82,11.44-23.6,28.91-34.38,41.62-.52.62-1.6,1.15-3.98,4.01-7.04,8.42-13.68,18.36-19.81,26.19-.35.45-3.43-.37-4.94,1.58-2.5,3.22-2.63,7.39-3.28,8.24-13.39,17.47-24.02,33.71-36.03,51.94-3.89,5.9-13.83,14.91-17.33,20.63-1.11,1.81.38,5.74-.37,6.98-1.66,2.72-8.56,9.22-9.63,11.02s.51,5.5-.82,7.75c-.78,1.33-4.3,2.91-5.13,4.35-53.59,92.45-85.18,179.49-106.41,286.91C7.02,859.37,1.31,921.28,5.31,1005.76c.51,10.79-.54,21.75-.06,32.55l1.97-1.99c.5,6.51-.68,13.82.09,20.21.05.38,4.01,4.26,4.02,5.29.05,4.63-2.82,7.17-2.17,13.05,2.19,20.01,5.93,47.52,10.13,68.69.11.55,5.77,8.95,5.88,9.5,3.71,18.18,5.44,41.15,10.13,59.69,7.45,29.49,20.77,57.71,31.88,86.3,35.87,92.31,73.88,164.54,133.7,243.63.65.86,2.16,6.45,3.07,7.64,2.04,2.67,5.05,1.84,5.23,2.07,5.56,7.25,11.48,20.56,18.32,27.64,1.6,1.65,5.84,2.96,7.52,4.54.68.64-.05,3.57.21,3.75.68.49,4.54-.72,5.74.32,4.97,4.31,6.13,10.33,8.98,13.68,2.33,2.74,5.08,1.81,5.27,2.02.46.52-.36,3.58,0,4,.3.34,3.63-.42,4,0,.31.35-.41,2.83.32,3.68,31.14,35.52,67.14,69.16,104,100,.88.74,3.3.01,3.68.32.42.35-.39,3.63.03,3.97.38.31,2.77-.41,3.67.33,4.38,3.6,8.75,7.17,12.62,11.37.66.71,3.47.06,3.67.33.46.63-.31,3.07.03,3.98,32.35,18.09,65.17,44.96,96.59,63.09,2.82,1.63,7.25.15,9.14,1.22,4.31,2.45,13.53,10.54,18.63,13.33,19.7,10.79,44.03,19.49,62.77,30.51,2.31,1.36,2.66,3.74,2.87,3.85,18.89,7.76,39.41,16.46,58.75,23.95,3.95,1.53,11.77,1.25,14.5,2.12,1.75.56,7.75,5.39,8.75,5.93,13.21,3.83,31.54,6.86,44.74,12.8,3.89,1.75,3.05,3.1,3.26,3.2,62.88,15.56,126.04,28.65,189.61,34.08,200.35,17,406.01-33.78,578.13-136.39,13.58-8.09,28.18-20.04,42.52-29.38,62.55-40.73,117.25-88.63,171.73-140.31.24-.32-.53-2.59.32-3.69,6.76-8.79,19.93-19.55,27.33-28.67,19.16-23.6,35.73-49.09,56-72l12.37-23.62,3.97-.04,60.02-103.98c-8.52,23.08-15.04,32.97-27.64,54.37-2.65,4.49-5.47,16.95-10.34,15.65-2.37,5.19-5.48,13.08-8.37,17.62-30.64,48.16-72.86,105.67-113.65,144.36-.24.32.52,2.53-.32,3.69-6.24,8.66-35.7,34.44-46.03,43.97-238.37,220.01-575.65,316.9-898.94,236.3-6.65-5.26-30.63-6.42-36.66-10.04-.35-.21.07-1.87-.06-1.92-13.46-3.33-19.45-4.75-32.71-9.96-2.79-1.1-10.82-1.73-15.27-4.07-.27-.14.13-1.89-.02-1.98-20.87-6.06-61.41-16.95-79.22-28.07-2.06-1.28-2.57-3.82-2.78-3.93-54.13-22.23-104.9-51.57-152.36-83.64-10.39-7.02-25.93-15.35-33.95-24.04-.66-.71-3.47-.06-3.67-.33-.46-.63.31-3.07-.03-3.98l-15.98-8.01c.9-6.3-1.87-2.9-3.71-4.3-4.98-3.8-13.36-10.23-17.92-14.07-2.96-2.49-2.23-5.35-2.46-5.55-11.98-10.1-27.51-20.85-39.76-32.25-.7-.65.22-3.39-.2-3.79-.37-.34-2.89.38-3.66-.34-103.7-97.94-188.29-224.79-240.25-358.44C-40.35,1039-14.72,734.1,125.63,488.68c19.91-34.81,44.87-68.01,69.37-100.59.91-1.21-.45-4.37.46-5.56,67.95-89.83,162.06-173.37,255.77-232.22Z"/><path class="cls-2" d="M990.23,32.31l45,1v1l24,1c318.81,32.83,594.01,205.73,750,485,51.26,99.56,87.49,207.58,101.86,319.64,54.62,426.01-176.28,812.94-563.18,981.54-327.65,142.78-705.18,83.24-979.43-142.86-3.87-3.19-7.87-10.66-13.25-10.32C165.18,1500.2,42.28,1265.95,32.22,1008.32l-1.97,2.99c-.18-1.28.21-2.75-.01-3.99v-81c1.09-4.78.45.77,1.99,0C45.07,529.01,323.73,183.2,701.24,71.83c54.04-15.94,110.28-26.53,165.99-34.51l14-1c.49-.7,1.32-.69,2-1l27-1c1.07-1.77,3.49-.75,5-1,15.05.54,30-.28,45-1,9.93-.48,20.08-2.57,30,0ZM1167.24,100.31l-149.57-18.05-3.43,32.05,55.99,6.02-23,150.98c4.93,1.74,38.21,7.97,39.57,6.08l22.58-151.41,54.86,6.36,3-32.01ZM935.75,100.8c-61.74-43.11-150.53-2.96-149.55,76.05,1.64,133.04,174.61,126.08,184.06,17.99,2.81-32.08-6.81-74.71-34.51-94.05ZM1222.8,114.77l-5.11-2.18-14.46,29.7,50.02,18.54-52.81,144.84,36.2,14.71,53.07-144.09,49.88,17.86,12.34-29.18-.86-2.51c-43.5-14.01-85.7-31.34-128.27-47.69ZM1400.95,185.64c-1.28-.33-2.4-.5-3.72-.33l-67.9,176.33,39.92,28.31,109.97-99.62-54.07,136.54,40.36,28.31,140.69-122.35c-5.36-3.62-12.6-6.31-17.72-10.18-4.14-3.13-12.63-14.61-16.49-14.28l-102.76,96.95,53.99-130.5-43.4-25.5-106.58,96,57.98-136.56c-6.78-.52-28.42-22.63-30.27-23.11ZM496.86,214.73c-4.98-4.56-28.67,16.31-27.96,19.32l90.32,114.25-143.75-74.85c-5.21-.6-34.47,25.11-40.36,30.4l106.7,147.52,32.02-22.15-83.6-110.91,139.94,70.57,41.03-31.09-114.35-143.07ZM1251.23,356.31c-403.84-182.31-892.26,83.18-945.93,522.57-73.77,603.95,636.91,980.94,1100.93,597.43,2.01,0,3.11.48,5-.75,18.82-12.33,49.05-46.83,64-64.25,229.33-234.11,234.45-637.57,15-879-39.23-49.3-98.09-98.35-151.86-131.88-27.12-16.91-57.48-32.65-87.14-44.12ZM330.81,356.76c-1.9-1.72-3.77-3.22-6.56-1.97-1.66.75-23.26,23.94-22.68,27.25l135.17,120.26,24.06-27.96-129.99-117.57ZM1657.68,395.89c-4.22-4.45-9.93-14.66-16.18-13.26l-138.29,114.41,77.76,91.06c5.03,1.94,20.53-17.07,26.25-20.28l-51.95-61.48,36.41-28.13,43.05,52.1,23.56-18.56-42.92-56.3,31.83-24.13,45.18,56.83c3.07,2.01,26.5-15.6,27.23-17.08.9-1.84.25-4.69-.69-6.46-21.8-21.58-40.18-46.49-61.24-68.72ZM270.77,431.77c-2.08-1.13-8.05-5.77-10.44-4.34l-62.11,98.88,151.37,96.9,63.56-93.27c-3.93-2.68-20.03-15.97-23.9-14.19l-42.5,61.54-40.33-30.57,35.68-55.07c-.23-1.29-19.66-15.54-20.93-15.86-3.96-1.01-35.34,48.76-37.95,54.51l-37.89-22.13,40.41-64.78c.33-2.81-11.84-9.94-14.96-11.63ZM1755.72,525.82c-1.77-1.8-2.25-4.25-5.76-3.51l-153.75,90.47,17.22,33.28,160.38-87.74c.83-1.66-16.79-31.18-18.09-32.5ZM213.81,603.73c-18.31-11.45-36.32-13.19-52.6,2.04-10.87,10.17-36.83,67.09-41.84,83.38-.68,2.21-2.73,8.67-2.15,10.41l168.01,71.29,13.94-32.5-70.63-32.35c-3.17-3.61,6.33-24.19,10.18-26.71,12.54-8.24,81.71,2.61,85.59-.41l12.92-36.55c-31.32,1.39-69.5-11.4-97.99,3.99-.19-16.92-11.3-33.75-25.43-42.59ZM1803.01,620.54l-167.73,59.84,37.06,105.84c2.07,1.22,28.05-7.87,28.54-10.38l-24.65-67.49,140.86-48.15-14.1-39.65ZM129.24,760.32l-27.95-3.94-21.65,112.98,180.45,34.8,20.71-108.89-28.05-6.03-14.51,71.07-49.94-12.05,11.45-66.95-26.42-5.94-14.09,66.95-40.27-7.22,10.28-74.77ZM1873.24,888.32l-19.61-113.97-178.24,32.6,16.44,111.48c1.49,1.7,30.18-2.25,31.23-4.81l-9.14-75.37,45.23-5.87,10.09,63.92,29.99-4.02-7.92-64.92,37.92-6.07,12,71.01,32.01-4ZM98.92,930.66c-9.17-2.54-18.61-4.39-27.68-7.35l1.98,43.51,141,35.97-137.56,51.44c-2.33,2.27,2.95,37.78,2.59,44.08l179.53-71-3.78-51.78c-52.29-13.86-104.02-30.45-156.08-44.87ZM1767.23,986.31v17.5c0,4.33-10.75,12.39-14.86,14.36-8.82,4.22-58.89,18.59-61.62,22.16-4.39,5.77,1.02,35.06-3.52,43.97,2.78,2.49,19.31-6.72,22.74-7.94,22.44-8,47.8-13.76,65.76-30.06,15.9,45.06,82.68,47.14,95.19-2.8,5.06-20.22,2.08-38.67,2.21-58.69.04-5.6,5.03-34.61-.51-36.25l-178.99-4.45c-3.24,1.56-2.64,38.52-.4,39.7,7,3.72,71.66-.61,74,2.5ZM117.22,1126.31l-26.99,7.48,37.01,129.53,28-5-13-49,143.04-41.7-8.04-39.31-4.54-.07-140.88,44.13-14.6-46.06ZM301.23,1207.32c-1.8-.32-2.8.78-4.04,1.75-5.66,4.43-51,65.98-52.7,72-.79,2.81,0,6.31-.26,9.24-19.8-18.76-39.63-17.02-62.12-3.86-47.84,28.01,8.08,99.02,21.39,133.23l159.74-81.38-19.51-36.07-66.48,36.08c-3.47-10.7-12.76-21.65-6.91-33.39l44.84-53.35c2.05-6.97-16.69-34.37-13.95-44.26ZM1757.23,1318.31h-29l-.58,38.88-110.92-66.91c-9.26,9.31-10.03,24.12-19.49,34.01l147.55,85.01,17.8-28.11-5.35-62.88ZM1583.22,1401.29c.86-2.11-20.07-18.61-21.49-18.63-12.83-.2-44.05,45.35-47.19,57.46-11.19,43.08,31.89,80.91,64.77,101.62,99.97,62.95,151.05-85.92,58.36-109.36-35.25-8.92-70.86,23.71-65.46,58.94-40.16-30.36-28.2-66.57,11-90.02ZM423.8,1411.73c-83.55-71.82-211.34,51.68-126.11,138.65,79.73,81.36,225.54-53.18,126.11-138.65ZM1437.73,1513.8l-2.15-2.36c-3.42,2.37-29.54,21.3-30.02,23.15-.44,1.74-.66,3.05.25,4.69l106.64,132.79c2.55.48,27.65-17.72,29.59-20.46,2.09-2.94,19.36-43.07,19.16-45.53-.14-1.76-21.36-26.21-23.44-25.85-5.1.9-18.01,35.54-20.5,34.06l-79.53-100.5ZM597.96,1569.59c-3.11-3.95-25.48-14.33-30.76-18.84l-34.66,51.63c-30.3-17.66-66.08-42.52-95.87-8.12-26.36,30.45-16.86,60.93,10.62,85.32,4.96,4.4,50.21,37.45,53.4,36.79,6.93-18.32,102.7-139.86,97.25-146.78ZM1356.11,1611.2c2.89-1.5-8.14-24.04-10.55-26.71-92.61,3.7-95.78,77.31-56.13,144.13,51.14,86.18,153.11,21.48,111.47-51.94-24.18-42.63-76.98-34.51-94.65,7.63-19.26-44.39,2.22-74.86,49.87-73.11ZM696.81,1616.75c-24.81-10.27-47.22-15.41-68.11,5.53-19.5,19.55-21.61,47.23-6.06,69.66,9,12.97,50.31,33.74,26.65,53.91-23.24,19.81-57.25-22.06-61.44-20.42-1.86,4.21-12.9,18.96-12.37,22.69.41,2.89,38.96,25.01,44.5,26.97,42.44,15.06,81.96-9.39,71.19-56.19-6.12-26.6-51.62-36.2-39.32-68.47,12.05-31.62,58.59,6.87,73.38,17.89.48-6.43,15.05-22.98,11.71-27.69-2.23-3.15-35.21-21.84-40.12-23.87Z"/><path class="cls-3" d="M1809.23,520.31c168.72,302.06,145.02,694.09-54.33,975.65-321.96,454.74-976.29,546.87-1399.67,172.35,5.38-.34,9.38,7.13,13.25,10.32,274.25,226.1,651.78,285.64,979.43,142.86,386.89-168.6,617.79-555.52,563.18-981.54-14.37-112.06-50.6-220.09-101.86-319.64Z"/><path class="cls-4" d="M30.23,1007.31c-2.32-13.08-2.82-68.67,0-81v81Z"/><path class="cls-4" d="M990.23,32.31l45,1-45-1Z"/><path class="cls-4" d="M960.23,32.31c-15,.72-29.95,1.54-45,1,14.8-2.4,30.11-.29,45-1Z"/><path class="cls-4" d="M910.23,34.31l-27,1c6.46-2.93,19.67.09,27-1Z"/><path class="cls-4" d="M1035.23,34.31c8.12-.46,15.93.17,24,1l-24-1Z"/><path class="cls-4" d="M881.23,36.31l-14,1c4.74-.68,9.16-1.58,14-1Z"/><path class="cls-5" d="M1406.23,1476.31c-464.02,383.51-1174.7,6.53-1100.93-597.43,53.67-439.39,542.08-704.88,945.93-522.57,90.47,40.84,173.54,103.98,239,176,106.77,134.18,164.12,277.58,159.04,452.54-4.8,165.26-68.8,303.88-174.04,426.46-20.62,21.05-45.85,45.87-69,65ZM872.23,340.31c-23.1,2.94-41.15,6.53-64.48,12.08-3.26.78-1.76-2.67-4.02-2.11-.53.13-8.15,5.63-9.24,5.97-1.95.59-4.7-.51-6.54.1-3.1,1.02-9.39,4.8-12.26,5.58-.85.23-3.6-2.51-4.45-1.62-.32.34.32,3.77,0,4.01-.66.49-5.53-.54-7.29.04-24.12,7.91-46.93,19.01-69.61,29.79-5.19,2.47-12.86,1.12-11.11,6.17-11.92,2.3-23.83,11.58-34.75,17.94-1.09.63-3.86-.54-5.12.2-.36.21-.12,5.2-5.84,4.18l-64.28,43.69,1.98,1.97c-1.08.1-2.94-.34-3.72.32-23.08,19.6-44.99,39.27-66.56,61.38-.73.75-3.5.08-3.72.32-.45.48,1.44,3.09.83,3.78-2.9,3.33-5.7,7.14-8.82,4.22,2.25,5.68-3.03,5.14-5.31,7.98-1.34,1.67-3.98,7.7-6.06,9.71-1.76,1.7-6.36,2.1-6.64,2.31-2.05,1.52,2.55,1.5,1.98,3.97-.14.62-9.07,7.28-9.77,8.19-26.96,34.77-54.11,77.08-74.14,116.6-.61,1.2.36,4.73-.05,5.25-.26.32-3.67-.33-4.01,0-.31.3,1.16,2.88.59,4.09-4.68,9.94-12.64,33.77-17.19,40.82-3.92,6.06-7.23.35-3.41,7.44l-17.92,54.39c-32.95,128.92-25.76,248.21,11.99,372.5.7,2.31,6.64,10.45,6.91,13.3.29,3.1-3.8-.32-2.97,3.45,3.25-.97,4.41,1.26,5.91,3.83,4.1,7.02,7.12,22.52,10.57,30.21,5.76,12.82,14.8,28.85,22.07,41.94.66,1.2-.88,3.67-.56,4.01.3.32,3.76-.38,3.99.03.25.44,1.58,6.32,2.34,7.62,5.03,8.54,20.89,36.28,26.05,41.97,3.3,3.64,6.57,4.09,5.62-1.62v-685l1074-1h4c-1.23-8.24-8.18-15.36-13-22-152.82-210.46-376.05-301.04-636-268ZM1554.73,686.31H499.23v705c104.4,111.31,243.71,186.3,397.52,203.98,434.88,49.97,802.45-331.91,708.51-765.69-10.75-49.65-26.01-98.83-50.54-143.28Z"/><path class="cls-3" d="M1400.95,185.64c1.85.48,23.5,22.59,30.27,23.11l-57.98,136.56,106.58-96,43.4,25.5-53.99,130.5,102.76-96.95c3.86-.33,12.35,11.15,16.49,14.28,5.12,3.87,12.37,6.56,17.72,10.18l-140.69,122.35-40.36-28.31,54.07-136.54-109.97,99.62-39.92-28.31,67.9-176.33c1.32-.17,2.44,0,3.72.33Z"/><path class="cls-3" d="M496.86,214.73l114.35,143.07-41.03,31.09-139.94-70.57,83.6,110.91-32.02,22.15-106.7-147.52c5.89-5.29,35.15-31,40.36-30.4l143.75,74.85-90.32-114.25c-.71-3.01,22.98-23.88,27.96-19.32Z"/><path class="cls-3" d="M935.75,100.8c27.7,19.34,37.32,61.97,34.51,94.05-9.46,108.09-182.42,115.05-184.06-17.99-.98-79.02,87.81-119.16,149.55-76.05ZM898.81,120.74c-92.08-34.89-92.47,136.62-7.16,123.5,50.65-7.79,51.33-106.76,7.16-123.5Z"/><path class="cls-3" d="M1767.23,986.31c-2.35-3.11-67,1.22-74-2.5-2.24-1.19-2.83-38.14.4-39.7l178.99,4.45c5.54,1.64.55,30.64.51,36.25-.14,20.02,2.85,38.47-2.21,58.69-12.51,49.94-79.29,47.86-95.19,2.8-17.96,16.31-43.31,22.06-65.76,30.06-3.44,1.23-19.97,10.43-22.74,7.94,4.54-8.91-.87-38.2,3.52-43.97,2.72-3.58,52.8-17.95,61.62-22.16,4.11-1.97,14.86-10.02,14.86-14.36v-17.5ZM1795.23,987.31v28.5c0,18.45,36.76,33.4,45.29,7.29,1.64-5.03,6.76-35.36,1.17-36.84l-46.46,1.05Z"/><path class="cls-3" d="M423.8,1411.73c99.42,85.46-46.38,220-126.11,138.65-85.23-86.96,42.56-210.46,126.11-138.65ZM404.67,1438.86c-48.35-45.7-142.28,51.23-80.65,91.39,26.88,17.52,48.02,5.41,70.14-12.68,28.14-23.02,41.06-49.83,10.51-78.71Z"/><path class="cls-3" d="M301.23,1207.32c-2.74,9.89,16,37.28,13.95,44.26l-44.84,53.35c-5.86,11.74,3.44,22.69,6.91,33.39l66.48-36.08,19.51,36.07-159.74,81.38c-13.31-34.21-69.23-105.22-21.39-133.23,22.49-13.17,42.32-14.91,62.12,3.86.26-2.93-.54-6.43.26-9.24,1.7-6.02,47.04-67.57,52.7-72,1.24-.97,2.24-2.07,4.04-1.75ZM228.92,1316.65c-11.58-2.85-28.35,1.94-30.24,15.63-.75,5.47,8.25,38.92,12.19,39.87l41.28-21.5c-2.77-9.05-13.46-31.6-23.22-34Z"/><path class="cls-3" d="M213.81,603.73c14.13,8.84,25.24,25.67,25.43,42.59,28.49-15.4,66.67-2.6,97.99-3.99l-12.92,36.55c-3.88,3.03-73.05-7.82-85.59.41-3.84,2.52-13.34,23.11-10.18,26.71l70.63,32.35-13.94,32.5-168.01-71.29c-.59-1.74,1.47-8.2,2.15-10.41,5.01-16.3,30.97-73.22,41.84-83.38,16.28-15.23,34.29-13.49,52.6-2.04ZM155.43,674.51c-.05.79,1.14,2.83,1.85,3.26,10.37,6.36,32.15,9.48,43.48,16.35,9.02-15.9,21.13-44.27-1.65-54.18-29.14-12.68-30.06,18.14-43.68,34.57Z"/><path class="cls-3" d="M1657.68,395.89c21.06,22.22,39.44,47.14,61.24,68.72.93,1.77,1.59,4.62.69,6.46-.73,1.49-24.16,19.09-27.23,17.08l-45.18-56.83-31.83,24.13,42.92,56.3-23.56,18.56-43.05-52.1-36.41,28.13,51.95,61.48c-5.72,3.21-21.22,22.22-26.25,20.28l-77.76-91.06,138.29-114.41c6.25-1.4,11.96,8.81,16.18,13.26Z"/><path class="cls-3" d="M1583.22,1401.29c-39.2,23.45-51.16,59.66-11,90.02-5.4-35.23,30.2-67.86,65.46-58.94,92.68,23.44,41.61,172.31-58.36,109.36-32.89-20.71-75.97-58.54-64.77-101.62,3.15-12.11,34.36-57.66,47.19-57.46,1.42.02,22.35,16.52,21.49,18.63ZM1626.91,1470.67c-30.39-9.33-45.73,29.31-15.27,45.26,31.32,16.41,56.59-8.4,32.15-33.69-1.77-1.83-14.87-10.96-16.88-11.58Z"/><path class="cls-3" d="M98.92,930.66c52.06,14.42,103.79,31.01,156.08,44.87l3.78,51.78-179.53,71c.36-6.3-4.92-41.8-2.59-44.08l137.56-51.44-141-35.97-1.98-43.51c9.07,2.96,18.51,4.81,27.68,7.35Z"/><polygon class="cls-3" points="129.24 760.32 118.96 835.09 159.22 842.31 173.31 775.36 199.73 781.31 188.28 848.26 238.23 860.31 252.74 789.25 280.79 795.27 260.08 904.16 79.63 869.36 101.29 756.37 129.24 760.32"/><path class="cls-3" d="M1356.11,1611.2c-47.64-1.75-69.13,28.72-49.87,73.11,17.67-42.14,70.47-50.26,94.65-7.63,41.64,73.42-60.33,138.12-111.47,51.94-39.65-66.82-36.48-140.43,56.13-144.13,2.41,2.67,13.44,25.2,10.55,26.71ZM1358.74,1684.82c-13.52-7.33-33.91.98-35.4,16.09-2.02,20.47,21.92,50.04,43.83,34.84,16.24-11.26,4.6-43.86-8.43-50.92Z"/><path class="cls-3" d="M270.77,431.77c3.12,1.69,15.29,8.82,14.96,11.63l-40.41,64.78,37.89,22.13c2.62-5.75,33.99-55.52,37.95-54.51,1.27.32,20.7,14.57,20.93,15.86l-35.68,55.07,40.33,30.57,42.5-61.54c3.88-1.78,19.98,11.51,23.9,14.19l-63.56,93.27-151.37-96.9,62.11-98.88c2.38-1.43,8.36,3.22,10.44,4.34Z"/><path class="cls-3" d="M597.96,1569.59c5.44,6.92-90.32,128.46-97.25,146.78-3.19.66-48.44-32.39-53.4-36.79-27.48-24.39-36.98-54.87-10.62-85.32,29.78-34.4,65.56-9.54,95.87,8.12l34.66-51.63c5.28,4.51,27.65,14.89,30.76,18.84ZM502.8,1618.75c-13.34-7.13-22.65-10.59-35.21.92-9.86,9.03-11.33,19.45-5.16,30.95,1.27,2.38,19.02,19.27,20.44,19.64,2.51.66,31.84-38.13,32.34-40.68.19-.96.33-2.21-.2-3.06-4.35-1.96-8.08-5.56-12.21-7.77Z"/><path class="cls-3" d="M1167.24,100.31l-3,32.01-54.86-6.36-22.58,151.41c-1.36,1.89-34.64-4.33-39.57-6.08l23-150.98-55.99-6.02,3.43-32.05,149.57,18.05Z"/><path class="cls-3" d="M1222.8,114.77c42.57,16.36,84.77,33.68,128.27,47.69l.86,2.51-12.34,29.18-49.88-17.86-53.07,144.09-36.2-14.71,52.81-144.84-50.02-18.54,14.46-29.7,5.11,2.18Z"/><path class="cls-3" d="M696.81,1616.75c4.91,2.03,37.88,20.71,40.12,23.87,3.33,4.71-11.23,21.26-11.71,27.69-14.79-11.02-61.32-49.5-73.38-17.89-12.3,32.26,33.2,41.87,39.32,68.47,10.78,46.8-28.75,71.25-71.19,56.19-5.53-1.96-44.09-24.08-44.5-26.97-.53-3.73,10.51-18.48,12.37-22.69,4.2-1.63,38.2,40.24,61.44,20.42,23.66-20.17-17.65-40.94-26.65-53.91-15.55-22.43-13.44-50.11,6.06-69.66,20.89-20.94,43.3-15.8,68.11-5.53Z"/><polygon class="cls-3" points="117.22 1126.31 131.82 1172.37 272.69 1128.24 277.24 1128.31 285.28 1167.62 142.24 1209.32 155.24 1258.32 127.24 1263.32 90.23 1133.79 117.22 1126.31"/><path class="cls-3" d="M1803.01,620.54l14.1,39.65-140.86,48.15,24.65,67.49c-.5,2.51-26.47,11.6-28.54,10.38l-37.06-105.84,167.73-59.84Z"/><path class="cls-3" d="M1437.73,1513.8l79.53,100.5c2.49,1.48,15.4-33.16,20.5-34.06,2.08-.37,23.3,24.08,23.44,25.85.2,2.46-17.08,42.59-19.16,45.53-1.94,2.73-27.04,20.93-29.59,20.46l-106.64-132.79c-.91-1.64-.7-2.95-.25-4.69.47-1.85,26.6-20.79,30.02-23.15l2.15,2.36Z"/><path class="cls-3" d="M1757.23,1318.31l5.35,62.88-17.8,28.11-147.55-85.01c9.47-9.89,10.24-24.7,19.49-34.01l110.92,66.91.58-38.88h29Z"/><path class="cls-3" d="M1755.72,525.82c1.31,1.32,18.92,30.84,18.09,32.5l-160.38,87.74-17.22-33.28,153.75-90.47c3.5-.74,3.98,1.71,5.76,3.51Z"/><path class="cls-3" d="M330.81,356.76l129.99,117.57-24.06,27.96-135.17-120.26c-.57-3.31,21.03-26.5,22.68-27.25,2.79-1.25,4.66.25,6.56,1.97Z"/><path class="cls-3" d="M1251.23,356.31c29.66,11.47,60.02,27.21,87.14,44.12,53.77,33.53,112.63,82.58,151.86,131.88,219.45,241.43,214.33,644.89-15,879-14.95,17.42-45.19,51.91-64,64.25-1.89,1.24-2.99.76-5,.75,23.15-19.13,48.38-43.95,69-65,105.23-122.59,169.23-261.21,174.04-426.46,5.08-174.96-52.27-318.36-159.04-452.54-65.46-72.02-148.53-135.16-239-176Z"/><path class="cls-3" d="M1873.24,888.32l-32.01,4-12-71.01-37.92,6.07,7.92,64.92-29.99,4.02-10.09-63.92-45.23,5.87,9.14,75.37c-1.05,2.56-29.74,6.51-31.23,4.81l-16.44-111.48,178.24-32.6,19.61,113.97ZM1853.58,788.01c-.59-2.72.59-9.54-1.8-10.4l-174.56,30.72,17.07,107.92c2.01,1.55,22.73-1.45,25.81-4.59,1.26-3.04-9.94-55.02-10.47-64.01-.25-4.32-2.03-9.57,3.14-11.29,3.47-1.16,45.87-6.47,48.17-5.7l10.29,63.66,26.05-4.64-8.14-63.67,41.41-6.74,12.68,71.05,28.01-4.01c-4.59-33.65-10.59-65.68-17.66-98.3Z"/><path class="cls-1" d="M872.23,340.31c259.95-33.04,483.18,57.54,636,268l11,19-1076,2c-.04,226.9-3.4,454.09-1,681l-2.98,3.99c-121.86-179.85-140.01-411.64-50.38-609.85,86.96-192.3,274.86-330.31,483.36-364.14Z"/><path class="cls-2" d="M1554.73,686.31c24.53,44.45,39.79,93.64,50.54,143.28,93.93,433.78-273.63,815.66-708.51,765.69-153.82-17.67-293.12-92.67-397.52-203.98v-705h1055.5ZM1555.23,690.31H501.23l2.09,3.42c-5.12,229.39,7.45,461.88-2.2,690.08-.14,3.22,2.79,3.24,4.05,5.25.65,1.04-.42,4.48.08,5.24.15.23,3.13-.39,3.68.32,3.91,5.02,6,12.8,12.3,7.69-1.13,7.02,5.98,10.08,9.69,14.31,2.4,2.74,2.9,2.81,4,4,2.9,3.14,3.97,7.35,4.32,7.67.49.45,3.58-.34,4,.03.1.08-1.02,1.8-.13,2.54,2.03,1.69,4.75,3.73,6.88,5.39.83.65,4.44-.43,5.24.08.26.16-.29,2.82,2.32,5.64.71.77,3.53.13,3.7.35.41.53-1.45,3.6-1,3.98.41.35,3.55-.6,4.73.32,1.92,1.5,4.58,5.72,6.57,7.38.87.72,3.23,0,3.66.35.4.32-.42,3.33.18,3.8,4.32,3.44,12.99,7.17,17.48,10.54,2.56,1.92,3.51,6.65,4.58,7.41.41.29,8.58,1.46,9.78,2.23.39.25-.35,3.72.03,3.98,1.5,1.01,9.24,2.54,11.78,4.18.72.47-.15,3.53.24,3.79,1.97,1.3,7.5,3.95,10.71,5.98,1.04.65,4.72-.38,5.26.05.31.25-.33,3.77-.02,4.02.51.41,4.13-.66,5.74.31,1.42.85,4.85,6.35,6.24,7.19s11.6,3.3,14.01,4.51c.39.2-.3,3.72.01,3.99.45.4,9.54.18,11.94,2.06.24.19-.6,3.69,2.46,5.54,11.77,7.14,33.53,16.85,46.49,22.22,255.93,106.01,551.11,40.94,732.81-162.15.74-.82.02-3.33.32-3.68.38-.43,3.67.36,3.99-.01s-.54-3.04.16-3.83c130.62-149.03,185.4-337.2,145.88-534.9-10.48-52.43-26.7-102.97-50.04-151.28Z"/><path class="cls-3" d="M872.23,340.31c-208.5,33.83-396.41,171.84-483.36,364.14-89.63,198.21-71.47,430,50.38,609.85l2.98-3.99c.02,1.88-.69,4.69,1,6,.95,5.71-2.32,5.26-5.62,1.62-5.15-5.7-21.02-33.43-26.05-41.97-.77-1.3-2.09-7.18-2.34-7.62-.23-.41-3.69.29-3.99-.03-.32-.34,1.22-2.81.56-4.01-7.27-13.1-16.31-29.12-22.07-41.94-3.45-7.69-6.47-23.19-10.57-30.21-1.5-2.58-2.67-4.81-5.91-3.83-.83-3.77,3.26-.35,2.97-3.45-.27-2.85-6.21-10.99-6.91-13.3-37.75-124.29-44.94-243.57-11.99-372.5l17.92-54.39c-3.82-7.09-.51-1.38,3.41-7.44,4.56-7.05,12.51-30.88,17.19-40.82.57-1.21-.91-3.79-.59-4.09.35-.33,3.76.32,4.01,0,.41-.51-.56-4.04.05-5.25,20.03-39.51,47.18-81.83,74.14-116.6.7-.91,9.63-7.57,9.77-8.19.57-2.47-4.03-2.45-1.98-3.97.28-.21,4.89-.61,6.64-2.31,2.08-2.01,4.72-8.04,6.06-9.71,2.28-2.84,7.56-2.3,5.31-7.98,3.12,2.92,5.92-.89,8.82-4.22.61-.7-1.28-3.3-.83-3.78.22-.24,2.99.43,3.72-.32,21.57-22.11,43.48-41.77,66.56-61.38.78-.66,2.64-.23,3.72-.32l-1.98-1.97,64.28-43.69c5.73,1.02,5.48-3.96,5.84-4.18,1.27-.75,4.04.43,5.12-.2,10.92-6.36,22.83-15.64,34.75-17.94-1.75-5.05,5.92-3.7,11.11-6.17,22.67-10.78,45.49-21.88,69.61-29.79,1.76-.58,6.63.46,7.29-.04.32-.24-.32-3.67,0-4.01.85-.89,3.6,1.85,4.45,1.62,2.86-.78,9.15-4.56,12.26-5.58,1.85-.61,4.59.49,6.54-.1,1.09-.33,8.71-5.83,9.24-5.97,2.26-.56.76,2.88,4.02,2.11,23.33-5.55,41.38-9.15,64.48-12.08Z"/><path class="cls-4" d="M1508.23,608.31c4.82,6.64,11.77,13.76,13,22h-4c-357.98,0-716.04-.83-1074,1v685c-1.69-1.31-.98-4.12-1-6-2.4-226.91.96-454.1,1-681h1076.5s-.5-2-.5-2l-11-19Z"/><path class="cls-3" d="M1517.23,630.31l-1074,1c357.96-1.83,716.02-1,1074-1Z"/><path class="cls-2" d="M898.81,120.74c44.17,16.74,43.5,115.7-7.16,123.5-85.31,13.13-84.92-158.39,7.16-123.5Z"/><path class="cls-2" d="M1795.23,987.31l46.46-1.05c5.58,1.48.47,31.81-1.17,36.84-8.53,26.11-45.29,11.16-45.29-7.29v-28.5Z"/><path class="cls-2" d="M404.67,1438.86c30.55,28.88,17.64,55.69-10.51,78.71-22.12,18.1-43.26,30.2-70.14,12.68-61.63-40.16,32.3-137.1,80.65-91.39Z"/><path class="cls-2" d="M228.92,1316.65c9.76,2.4,20.46,24.95,23.22,34l-41.28,21.5c-3.94-.95-12.94-34.41-12.19-39.87,1.89-13.69,18.65-18.48,30.24-15.63Z"/><path class="cls-2" d="M155.43,674.51c13.62-16.43,14.53-47.25,43.68-34.57,22.78,9.91,10.67,38.28,1.65,54.18-11.33-6.87-33.12-9.99-43.48-16.35-.7-.43-1.9-2.47-1.85-3.26Z"/><path class="cls-2" d="M1626.91,1470.67c2,.62,15.1,9.74,16.88,11.58,24.44,25.29-.83,50.1-32.15,33.69-30.46-15.96-15.11-54.59,15.27-45.26Z"/><path class="cls-2" d="M1358.74,1684.82c13.03,7.06,24.66,39.66,8.43,50.92-21.91,15.2-45.85-14.37-43.83-34.84,1.49-15.11,21.88-23.42,35.4-16.09Z"/><path class="cls-2" d="M502.8,1618.75c4.13,2.21,7.86,5.8,12.21,7.77.53.85.39,2.09.2,3.06-.5,2.55-29.82,41.34-32.34,40.68-1.42-.37-19.16-17.27-20.44-19.64-6.17-11.5-4.7-21.92,5.16-30.95,12.56-11.51,21.87-8.04,35.21-.92Z"/><path class="cls-5" d="M1853.58,788.01c7.07,32.62,13.07,64.66,17.66,98.3l-28.01,4.01-12.68-71.05-41.41,6.74,8.14,63.67-26.05,4.64-10.29-63.66c-2.3-.77-44.69,4.54-48.17,5.7-5.17,1.72-3.39,6.97-3.14,11.29.53,8.99,11.74,60.97,10.47,64.01-3.09,3.14-23.8,6.14-25.81,4.59l-17.07-107.92,174.56-30.72c2.39.86,1.21,7.69,1.8,10.4Z"/><polygon class="cls-2" points="1519.23 627.31 1519.73 629.32 443.23 629.31 1519.23 627.31"/><path class="cls-1" d="M1555.23,690.31c23.34,48.31,39.56,98.85,50.04,151.28,39.52,197.7-15.26,385.87-145.88,534.9-.69.79.18,3.44-.16,3.83s-3.61-.42-3.99.01c-.31.34.41,2.85-.32,3.68-181.7,203.09-476.88,268.16-732.81,162.15-12.96-5.37-34.72-15.08-46.49-22.22-3.06-1.85-2.22-5.36-2.46-5.54-2.39-1.88-11.48-1.66-11.94-2.06-.31-.27.38-3.79-.01-3.99-2.4-1.21-12.66-3.7-14.01-4.51s-4.82-6.34-6.24-7.19c-1.61-.97-5.23.1-5.74-.31-.31-.25.33-3.77.02-4.02-.54-.43-4.22.61-5.26-.05-3.21-2.03-8.74-4.68-10.71-5.98-.4-.26.48-3.33-.24-3.79-2.54-1.64-10.28-3.17-11.78-4.18-.38-.26.37-3.73-.03-3.98-1.2-.77-9.37-1.93-9.78-2.23-1.07-.76-2.02-5.49-4.58-7.41-4.48-3.37-13.16-7.1-17.48-10.54-.6-.48.22-3.48-.18-3.8-.43-.35-2.79.38-3.66-.35-1.99-1.66-4.65-5.87-6.57-7.38-1.18-.92-4.32.03-4.73-.32-.45-.38,1.41-3.46,1-3.98-.16-.21-2.99.42-3.7-.35-2.61-2.82-2.06-5.48-2.32-5.64-.8-.5-4.4.57-5.24-.08-2.13-1.66-4.85-3.7-6.88-5.39-.89-.74.23-2.46.13-2.54-.42-.37-3.5.42-4-.03-.34-.31-1.42-4.53-4.32-7.67-1.1-1.19-1.6-1.27-4-4-3.71-4.23-10.82-7.28-9.69-14.31-6.3,5.11-8.39-2.67-12.3-7.69-.55-.7-3.53-.09-3.68-.32-.5-.75.58-4.19-.08-5.24-1.25-2.01-4.19-2.03-4.05-5.25,9.65-228.2-2.92-460.69,2.2-690.08l-2.09-3.42h1054ZM826.84,809.7c-115.82-76.25-260.96,8.16-249.58,146.08,9.74,118.13,146.7,177.07,244.7,116.77,94.53-58.16,97.87-201.64,4.88-262.85ZM538.73,1421.31v1l.5-.5-.5-.5Z"/><path class="cls-5" d="M826.84,809.7c92.99,61.21,89.65,204.69-4.88,262.85-98,60.3-234.96,1.36-244.7-116.77-11.38-137.92,133.76-222.33,249.58-146.08Z"/><polygon class="cls-2" points="538.73 1421.31 539.23 1421.81 538.73 1422.31 538.73 1421.31"/></svg>